<?xml version="1.0" encoding="UTF-8"?>
<svg version="1.1" xmlns="http://www.w3.org/2000/svg" width="800" height="533">
<path d="M0 0 C264 0 528 0 800 0 C800 175.89 800 351.78 800 533 C536 533 272 533 0 533 C0 357.11 0 181.22 0 0 Z " fill="#FDFAF6" transform="translate(0,0)"/>
<path d="M0 0 C11.34428664 5.77335629 17.74019393 13.27601911 22.15771484 25.31518555 C23.03844637 28.31489304 23.30314529 31.04464563 23.36865234 34.16674805 C23.39701172 35.10131836 23.42537109 36.03588867 23.45458984 36.9987793 C23.50604595 38.93610179 23.55049464 40.87362505 23.58740234 42.8112793 C23.88463367 51.86445018 25.80946012 59.43081191 30.34521484 67.31518555 C33.54680157 73.5272195 34.60296522 78.74264199 32.46630859 85.50268555 C31.94136003 86.84168477 31.39677998 88.173213 30.82958984 89.49487305 C29.84757743 92.15544157 29.89149798 94.51990847 30.15771484 97.31518555 C30.48771484 97.97518555 30.81771484 98.63518555 31.15771484 99.31518555 C31.7013193 104.27000648 31.72208558 108.18644407 29.47021484 112.69018555 C27.19123663 115.27713379 25.00271916 117.36860365 22.15771484 119.31518555 C21.49771484 119.31518555 20.83771484 119.31518555 20.15771484 119.31518555 C20.15771484 119.97518555 20.15771484 120.63518555 20.15771484 121.31518555 C20.70943359 121.40928711 21.26115234 121.50338867 21.82958984 121.6003418 C32.65646713 124.92470177 40.90726872 135.79074823 46.15771484 145.31518555 C46.15771484 145.97518555 46.15771484 146.63518555 46.15771484 147.31518555 C47.20705704 147.30186188 48.25639923 147.28853821 49.33753967 147.27481079 C59.23918441 147.15304317 69.14067673 147.06317175 79.04290104 147.00431252 C84.13349234 146.97303442 89.22347797 146.93062589 94.3137207 146.86254883 C99.22857531 146.79723072 104.14284833 146.76145301 109.05810356 146.74592209 C110.93081248 146.73485807 112.8034905 146.71325189 114.675951 146.68080521 C117.3047611 146.63707472 119.9311859 146.63125812 122.56030273 146.6340332 C123.32994858 146.61246155 124.09959442 146.59088989 124.89256287 146.56866455 C130.15416518 146.62853773 132.87380959 148.08989932 136.73340511 151.63600731 C140.25411677 155.78672135 140.44686369 159.47850637 140.41841125 164.77914429 C140.4222368 165.53378578 140.42606235 166.28842727 140.43000382 167.06593668 C140.44032771 169.59619323 140.43634285 172.1262226 140.43237305 174.65649414 C140.43671989 176.4699881 140.44190295 178.28348022 140.44786072 180.0969696 C140.46126568 185.02468505 140.46182767 189.95232387 140.45929742 194.880054 C140.45822861 198.9929137 140.46310881 203.10575784 140.46790284 207.21861422 C140.47900344 216.92171491 140.47943247 226.62477689 140.47338867 236.32788086 C140.46734889 246.33898795 140.47965875 256.3499545 140.50095874 266.36103761 C140.51857107 274.9547806 140.52457664 283.54847884 140.521321 292.14223921 C140.51950724 297.27547184 140.52215349 302.40860423 140.53603554 307.54182053 C140.54860305 312.36976984 140.54667994 317.19750003 140.53362465 322.02544594 C140.53125689 323.79674287 140.53400071 325.56805517 140.54224777 327.33933449 C140.55270027 329.7588974 140.54462695 332.17772307 140.53193665 334.59725952 C140.53931093 335.29687943 140.54668522 335.99649934 140.55428296 336.71731985 C140.50373429 341.30400823 139.55109475 344.41310092 137.15771484 348.31518555 C131.87203957 353.20443518 127.61713263 353.46391031 120.6750946 353.46235657 C119.79880097 353.46603326 118.92250733 353.46970994 118.01965934 353.47349805 C115.07177548 353.4845458 112.12392686 353.48838056 109.17602539 353.4921875 C107.06711718 353.49845124 104.95821008 353.50509796 102.8493042 353.51210022 C97.1116625 353.52951628 91.37402914 353.5400633 85.63636756 353.54830575 C82.05343782 353.55345386 78.47051068 353.55952963 74.88758278 353.56581688 C63.68240245 353.58486931 52.47722872 353.59910122 41.2720353 353.60742885 C28.32794219 353.61720716 15.38401981 353.64354207 2.43998688 353.68392974 C-7.55923685 353.71406108 -17.55841156 353.72889483 -27.55767983 353.73220986 C-33.53268928 353.73456343 -39.50751634 353.74356412 -45.48247719 353.76867104 C-51.10247694 353.79190497 -56.72217359 353.79620375 -62.34220886 353.78590965 C-64.40538731 353.78541307 -66.46858044 353.7917694 -68.53171349 353.8054657 C-71.34774562 353.82311495 -74.16268174 353.81611276 -76.97871399 353.80293274 C-77.79574446 353.81390199 -78.61277494 353.82487123 -79.45456392 353.83617288 C-84.70082227 353.77686323 -87.67871431 352.78616451 -91.84228516 349.31518555 C-94.72932869 345.13395008 -95.96755581 342.33746688 -95.96253967 337.29122925 C-95.96391434 336.22829651 -95.965289 335.16536377 -95.96670532 334.07022095 C-95.96131241 332.31371719 -95.96131241 332.31371719 -95.95581055 330.52172852 C-95.95595657 329.29248657 -95.9561026 328.06324463 -95.95625305 326.79675293 C-95.9556747 323.42092213 -95.95065052 320.04515207 -95.94367909 316.66933203 C-95.93743874 313.14325482 -95.93684122 309.61717685 -95.93565369 306.09109497 C-95.93254239 299.41170231 -95.9243317 292.73232596 -95.9143042 286.05294049 C-95.90313682 278.4496553 -95.89763103 270.84636934 -95.89260876 263.24307799 C-95.88214893 247.60043611 -95.86380594 231.95781671 -95.84228516 216.31518555 C-110.69228516 216.31518555 -125.54228516 216.31518555 -140.84228516 216.31518555 C-140.04838704 207.58230622 -138.82747079 199.3673221 -137.05078125 190.83789062 C-136.59705528 188.65068021 -136.15855987 186.46079581 -135.72119141 184.27026367 C-130.72332279 159.7273004 -122.48566705 135.43073952 -101.04931641 120.3503418 C-94.4696381 116.31518555 -94.4696381 116.31518555 -91.84228516 116.31518555 C-92.33599609 115.7119043 -92.82970703 115.10862305 -93.33837891 114.48706055 C-93.97904297 113.6878418 -94.61970703 112.88862305 -95.27978516 112.06518555 C-95.91787109 111.2762793 -96.55595703 110.48737305 -97.21337891 109.67456055 C-100.14374764 105.43009361 -100.32704635 101.40517811 -99.84228516 96.31518555 C-99.03913141 94.73696036 -98.20145345 93.1761301 -97.34228516 91.62768555 C-94.53441815 86.01195154 -94.65710132 81.36222016 -94.90478516 75.25268555 C-95.18241999 67.08013932 -94.59080987 61.59434332 -88.84228516 55.31518555 C-87.68854538 54.17693221 -86.52195401 53.05154395 -85.34228516 51.94018555 C-78.80088085 45.75819906 -76.01758687 36.8544163 -72.84228516 28.62768555 C-70.51005601 22.61549846 -67.81768377 17.40490045 -63.84228516 12.31518555 C-63.33181641 11.63069336 -62.82134766 10.94620117 -62.29541016 10.2409668 C-55.69869336 1.9950708 -46.93904692 -2.95027481 -36.84228516 -5.68481445 C-24.47081597 -9.80863751 -11.18907692 -5.39576877 0 0 Z " fill="#FDFAF5" transform="translate(265.84228515625,119.684814453125)"/>
<path d="M0 0 C1.0509082 0.49483887 2.10181641 0.98967773 3.18457031 1.49951172 C6.9568699 3.14353088 10.20445692 3.36868338 14.33984375 3.37109375 C15.74804895 3.38850457 17.15625202 3.40608857 18.56445312 3.42382812 C20.73580502 3.43378066 22.90699567 3.43752435 25.07836914 3.43579102 C39.94618627 3.46139281 55.26219223 4.70594043 66.54296875 15.47265625 C70.41508676 19.73085055 72.30618199 24.68727329 73.9375 30.125 C75.13563504 33.36701245 76.84189873 35.31872266 79 38 C83.46306569 46.28855056 82.57115996 54.03764931 80.3671875 62.9375 C76.36434329 75.83185338 69.54723122 91.22759823 60 101 C59.01 101.33 58.02 101.66 57 102 C56.62519659 114.66308954 56.62519659 114.66308954 61.265625 125.859375 C64.09620214 127.77278189 66.99343153 129.38077097 70 131 C85.71377576 143.74159778 94.82204309 163.37936676 97.26707458 183.16075134 C98.24323932 192.75129796 98.33511206 202.37324983 98.53515625 212.00390625 C98.57834341 213.96940089 98.62175943 215.93489052 98.66539001 217.90037537 C98.75603622 222.0231343 98.84396111 226.14593982 98.92993164 230.26879883 C99.0380294 235.44316522 99.15267543 240.61735976 99.26950932 245.79153538 C99.36063493 249.86154973 99.44807978 253.93163769 99.53457451 258.00175285 C99.57535851 259.90231578 99.61715523 261.80285737 99.66017342 263.70337105 C100.06619189 281.80868956 100 299.88116734 100 318 C56.11 318 12.22 318 -33 318 C-33 306.45 -33 294.9 -33 283 C-33.99 283.33 -34.98 283.66 -36 284 C-48.29905947 285.39802259 -56.57494048 281.5897642 -66.1875 274.1875 C-87.94273139 255.79255117 -103.31868305 230.4798776 -116.97900391 205.78369141 C-117.84781488 204.26586908 -118.81153963 202.80302324 -119.79296875 201.35546875 C-121 199 -121 199 -120.984375 195.98828125 C-121.00373304 192.28605566 -121.9841747 191.05786272 -124.25 188.1875 C-126.69990401 184.93563141 -128.51663481 182.06254776 -129.9375 178.25 C-131.71992052 173.8518195 -134.2245186 172.06196056 -138.09765625 169.47265625 C-141.88688945 166.53930734 -143.50651762 162.48044713 -145 158 C-145.46390915 153.28359031 -145.71330648 150.32684671 -142.75 146.5 C-140 144 -140 144 -136 144 C-135.896875 142.88625 -135.79375 141.7725 -135.6875 140.625 C-135.460625 139.42875 -135.23375 138.2325 -135 137 C-132 135 -132 135 -128 135 C-127.67 134.01 -127.34 133.02 -127 132 C-125.02 131.67 -123.04 131.34 -121 131 C-121.63808594 129.87722656 -122.27617187 128.75445312 -122.93359375 127.59765625 C-123.76902218 126.0863756 -124.6036131 124.57463177 -125.4375 123.0625 C-125.85837891 122.32708984 -126.27925781 121.59167969 -126.71289062 120.83398438 C-129.64442098 115.46342077 -130.76624678 111.13152669 -131 105 C-130 104 -130 104 -126.8359375 103.84375 C-124.19231422 104.27514187 -123.191303 104.79316143 -121.35253906 106.78125 C-119.65224005 109.29612075 -118.12314103 111.85960961 -116.625 114.5 C-116.06482178 115.44963623 -115.50464355 116.39927246 -114.92749023 117.37768555 C-113.25586069 120.23618883 -111.62292334 123.11361994 -110 126 C-109.54737793 126.79229004 -109.09475586 127.58458008 -108.62841797 128.40087891 C-102.01339048 140.04075834 -96.52879694 151.9977318 -93.57421875 165.09912109 C-91.77423955 172.9662041 -89.51026631 176.43053006 -83 181 C-77.95619939 185.5282121 -73.77655894 190.68173767 -69.5390625 195.953125 C-66.22004047 199.93595144 -62.71371402 203.72204631 -59.16137695 207.49658203 C-56.9294742 209.87494293 -54.79369242 212.26086528 -52.76953125 214.8203125 C-51.18363244 217.08007411 -51.18363244 217.08007411 -49 218 C-48.76023437 217.195625 -48.52046875 216.39125 -48.2734375 215.5625 C-46.70997558 211.18864335 -44.71900592 207.14071732 -42.625 203 C-42.18800781 202.1327832 -41.75101563 201.26556641 -41.30078125 200.37207031 C-14.86982911 148.31053993 -14.86982911 148.31053993 1.625 139.25 C4.72894571 137.50735219 4.72894571 137.50735219 7 135 C8.47115199 128.22400439 7.48040513 121.73262506 6 115 C5.42765625 115.15855469 4.8553125 115.31710937 4.265625 115.48046875 C-2.0468414 116.9279826 -7.55138797 116.47480962 -13.2109375 113.26171875 C-18.32078917 109.65804606 -20.8765785 105.13255119 -22 99 C-22.22168585 95.68127298 -22.19072385 92.38660996 -22.125 89.0625 C-22.11597656 88.18787109 -22.10695313 87.31324219 -22.09765625 86.41210938 C-22.0742957 84.27461936 -22.03843247 82.13727214 -22 80 C-22.78632812 79.69578125 -23.57265625 79.3915625 -24.3828125 79.078125 C-28.45736659 77.39965197 -28.45736659 77.39965197 -30 75 C-30.25181704 71.47456146 -29.44728277 69.5558659 -27.24609375 66.8203125 C-25.8596459 65.30364579 -24.44748745 63.80998722 -23.0078125 62.34375 C-18.82032984 57.45563794 -17.35894384 52.12676377 -16 46 C-14.86662883 40.89022488 -13.40212528 36.69506305 -11 32 C-10.65106764 28.7909084 -10.65106764 28.7909084 -13.375 26.5625 C-14.24125 25.716875 -15.1075 24.87125 -16 24 C-18.89308157 19.33116491 -18.87046145 14.31281647 -18 9 C-14.12338673 1.90126661 -8.0611195 -1.277145 0 0 Z " fill="#FDC15F" transform="translate(591,215)"/>
<path d="M0 0 C11.34428664 5.77335629 17.74019393 13.27601911 22.15771484 25.31518555 C23.03844637 28.31489304 23.30314529 31.04464563 23.36865234 34.16674805 C23.39701172 35.10131836 23.42537109 36.03588867 23.45458984 36.9987793 C23.50604595 38.93610179 23.55049464 40.87362505 23.58740234 42.8112793 C23.88463367 51.86445018 25.80946012 59.43081191 30.34521484 67.31518555 C33.54680157 73.5272195 34.60296522 78.74264199 32.46630859 85.50268555 C31.94136003 86.84168477 31.39677998 88.173213 30.82958984 89.49487305 C29.84757743 92.15544157 29.89149798 94.51990847 30.15771484 97.31518555 C30.48771484 97.97518555 30.81771484 98.63518555 31.15771484 99.31518555 C31.7013193 104.27000648 31.72208558 108.18644407 29.47021484 112.69018555 C27.19123663 115.27713379 25.00271916 117.36860365 22.15771484 119.31518555 C21.49771484 119.31518555 20.83771484 119.31518555 20.15771484 119.31518555 C20.15771484 119.97518555 20.15771484 120.63518555 20.15771484 121.31518555 C20.70943359 121.40928711 21.26115234 121.50338867 21.82958984 121.6003418 C32.57100168 124.89845986 41.03821498 135.77855623 46.15771484 145.31518555 C46.15771484 146.30518555 46.15771484 147.29518555 46.15771484 148.31518555 C45.4932604 148.31665211 44.82880596 148.31811867 44.14421654 148.31962967 C27.96897212 148.35669774 11.79397134 148.41571225 -4.38109779 148.49908829 C-12.2032874 148.53888052 -20.02537637 148.57127202 -27.84765625 148.58618164 C-34.6663762 148.59919727 -41.48487475 148.62615943 -48.30347002 148.66979861 C-51.91319028 148.69241574 -55.52263744 148.7080961 -59.13243484 148.7070694 C-63.16444927 148.70618412 -67.19565832 148.736438 -71.22753906 148.76928711 C-72.42156342 148.76425674 -73.61558777 148.75922638 -74.84579468 148.75404358 C-81.11267933 148.83315703 -85.142162 148.98357071 -89.84228516 153.31518555 C-92.13751134 156.75802483 -92.11007063 158.1041306 -92.16113281 162.16357422 C-92.1810025 163.36459274 -92.20087219 164.56561127 -92.22134399 165.80302429 C-92.2328952 167.09996719 -92.24444641 168.3969101 -92.25634766 169.7331543 C-92.27505893 171.07409356 -92.29463232 172.41502105 -92.31503296 173.75593567 C-92.3663648 177.28218645 -92.40598464 180.80847541 -92.44317627 184.3348999 C-92.48320948 187.934544 -92.53419805 191.53403169 -92.58447266 195.13354492 C-92.68228028 202.19403256 -92.76178409 209.25439428 -92.84228516 216.31518555 C-108.68228516 216.31518555 -124.52228516 216.31518555 -140.84228516 216.31518555 C-140.04838704 207.58230622 -138.82747079 199.3673221 -137.05078125 190.83789062 C-136.59705528 188.65068021 -136.15855987 186.46079581 -135.72119141 184.27026367 C-130.72332279 159.7273004 -122.48566705 135.43073952 -101.04931641 120.3503418 C-94.4696381 116.31518555 -94.4696381 116.31518555 -91.84228516 116.31518555 C-92.33599609 115.7119043 -92.82970703 115.10862305 -93.33837891 114.48706055 C-93.97904297 113.6878418 -94.61970703 112.88862305 -95.27978516 112.06518555 C-95.91787109 111.2762793 -96.55595703 110.48737305 -97.21337891 109.67456055 C-100.14374764 105.43009361 -100.32704635 101.40517811 -99.84228516 96.31518555 C-99.03913141 94.73696036 -98.20145345 93.1761301 -97.34228516 91.62768555 C-94.53441815 86.01195154 -94.65710132 81.36222016 -94.90478516 75.25268555 C-95.18241999 67.08013932 -94.59080987 61.59434332 -88.84228516 55.31518555 C-87.68854538 54.17693221 -86.52195401 53.05154395 -85.34228516 51.94018555 C-78.80088085 45.75819906 -76.01758687 36.8544163 -72.84228516 28.62768555 C-70.51005601 22.61549846 -67.81768377 17.40490045 -63.84228516 12.31518555 C-63.33181641 11.63069336 -62.82134766 10.94620117 -62.29541016 10.2409668 C-55.69869336 1.9950708 -46.93904692 -2.95027481 -36.84228516 -5.68481445 C-24.47081597 -9.80863751 -11.18907692 -5.39576877 0 0 Z " fill="#4C86DC" transform="translate(265.84228515625,119.684814453125)"/>
<path d="M0 0 C1.89265594 -0.01691895 1.89265594 -0.01691895 3.82354736 -0.03417969 C5.21423571 -0.02640316 6.60492177 -0.01821053 7.99560547 -0.00964355 C9.46605115 -0.01506607 10.93649141 -0.02218947 12.40692139 -0.03088379 C16.39457289 -0.04910495 20.38181002 -0.04205481 24.36946869 -0.02936745 C28.54450082 -0.01923344 32.71949771 -0.02863424 36.89453125 -0.03491211 C43.90550093 -0.04218736 50.91630201 -0.03260408 57.92724609 -0.0135498 C66.03043949 0.00821879 74.13323031 0.00116733 82.23641396 -0.02085543 C89.19623063 -0.03901297 96.15592618 -0.04156604 103.1157589 -0.03110075 C107.27143324 -0.02486773 111.42691841 -0.02402481 115.58258057 -0.0372467 C119.48974686 -0.04880984 123.39639461 -0.04077155 127.30350494 -0.01766968 C128.73657623 -0.01238498 130.16969122 -0.01389235 131.60274506 -0.02272034 C133.56034273 -0.03366694 135.51803587 -0.01749905 137.47558594 0 C138.57063446 0.0015081 139.66568298 0.0030162 140.79391479 0.00457001 C144.45072793 0.6298371 146.13320306 1.90835098 148.73779297 4.50793457 C149.36598206 7.3157959 149.36598206 7.3157959 149.36889648 10.58996582 C149.3814296 11.81803955 149.39396271 13.04611328 149.40687561 14.31140137 C149.39460721 15.64775656 149.38118718 16.9841016 149.36669922 18.32043457 C149.36752819 19.69519234 149.36998865 21.06995001 149.37400818 22.44470215 C149.37686431 25.32318018 149.36218526 28.20087929 149.3347168 31.07922363 C149.30063244 34.76501408 149.30665291 38.44941205 149.32537937 42.13526917 C149.33595882 44.97326215 149.32700335 47.81093228 149.31199455 50.64889526 C149.30681909 52.00762981 149.30728687 53.36639816 149.31353951 54.72512817 C149.31900193 56.62543101 149.2957432 58.52575061 149.27124023 60.42590332 C149.26194237 62.04661743 149.26194237 62.04661743 149.25245667 63.70007324 C148.59660261 67.27822971 147.57560296 68.2723901 144.73779297 70.50793457 C141.88293457 71.01409245 141.88293457 71.01409245 138.51318359 71.02259827 C137.23451416 71.03532272 135.95584473 71.04804718 134.63842773 71.06115723 C133.22363096 71.05497496 131.80883599 71.04836894 130.39404297 71.04138184 C128.90241644 71.04843995 127.41079708 71.05718452 125.91918945 71.06748962 C121.8695829 71.0900045 117.82036677 71.08703934 113.77072144 71.07816815 C110.3908243 71.07306102 107.01100071 71.08034848 103.63111115 71.08764023 C95.65879396 71.10464552 87.68666815 71.10106667 79.71435547 71.08435059 C71.48670427 71.06742236 63.25958334 71.08327173 55.03199005 71.11557347 C47.96944499 71.14225182 40.90706519 71.14955034 33.84447479 71.14105839 C29.62560761 71.13612473 25.40705965 71.13836831 21.18823242 71.1588459 C17.22190963 71.17717615 13.25635107 71.17127787 9.29006958 71.1466465 C7.83399845 71.14163031 6.37786935 71.14514945 4.92184448 71.15779495 C2.93541417 71.17368311 0.94879892 71.15578142 -1.03759766 71.13612366 C-2.70562439 71.13524419 -2.70562439 71.13524419 -4.40734863 71.13434696 C-7.26220703 70.50793457 -7.26220703 70.50793457 -9.61907864 68.14930725 C-11.58812863 64.98400691 -11.7739758 63.11306496 -11.7956543 59.4041748 C-11.81149063 58.19619736 -11.82732697 56.98821991 -11.84364319 55.74363708 C-11.83620338 53.79971825 -11.83620338 53.79971825 -11.82861328 51.81652832 C-11.83385163 50.46561759 -11.84012889 49.11471053 -11.84739685 47.7638092 C-11.85778469 44.93851454 -11.85326209 42.11372407 -11.83862305 39.28845215 C-11.82141128 35.67092637 -11.84496487 32.05498542 -11.88011265 28.43763638 C-11.90208644 25.65026869 -11.90064599 22.86328059 -11.89234734 20.07585335 C-11.89113074 18.09495525 -11.9110567 16.11408066 -11.93128967 14.13328552 C-11.91875656 12.92846024 -11.90622345 11.72363495 -11.89331055 10.4822998 C-11.89234879 9.42260483 -11.89138702 8.36290985 -11.89039612 7.27110291 C-10.50686629 1.18547377 -5.63274586 0.00775743 0 0 Z " fill="#4C86DC" transform="translate(201.26220703125,341.4920654296875)"/>
<path d="M0 0 C11.34428664 5.77335629 17.74019393 13.27601911 22.15771484 25.31518555 C23.03844637 28.31489304 23.30314529 31.04464563 23.36865234 34.16674805 C23.39701172 35.10131836 23.42537109 36.03588867 23.45458984 36.9987793 C23.50604595 38.93610179 23.55049464 40.87362505 23.58740234 42.8112793 C23.88463367 51.86445018 25.80946012 59.43081191 30.34521484 67.31518555 C33.54680157 73.5272195 34.60296522 78.74264199 32.46630859 85.50268555 C31.94136003 86.84168477 31.39677998 88.173213 30.82958984 89.49487305 C29.84757743 92.15544157 29.89149798 94.51990847 30.15771484 97.31518555 C30.48771484 97.97518555 30.81771484 98.63518555 31.15771484 99.31518555 C31.7013193 104.27000648 31.72208558 108.18644407 29.47021484 112.69018555 C25.11329448 117.63587894 25.11329448 117.63587894 22.15771484 119.31518555 C15.82777796 119.31518555 9.94929068 117.15862701 3.91943359 115.3659668 C-1.07061094 113.97207066 -6.09195128 112.93817086 -11.17431641 111.9284668 C-13.84228516 111.31518555 -13.84228516 111.31518555 -14.84228516 110.31518555 C-14.88309299 108.31560191 -14.88482872 106.31473301 -14.84228516 104.31518555 C-15.39916016 104.30100586 -15.95603516 104.28682617 -16.52978516 104.2722168 C-24.21357525 103.79197992 -29.30609042 100.86840921 -34.84228516 95.62768555 C-36.84228516 93.31518555 -36.84228516 93.31518555 -36.84228516 91.31518555 C-34.82720978 92.32046924 -32.81432793 93.32940563 -30.80712891 94.3503418 C-29.80359375 94.85887695 -29.80359375 94.85887695 -28.77978516 95.37768555 C-27.77238281 95.89008789 -27.77238281 95.89008789 -26.74462891 96.4128418 C-20.32477873 99.45798634 -12.18670327 99.3859448 -5.35400391 97.7019043 C1.82631968 94.53698497 5.58281582 88.24204744 8.40771484 81.19018555 C13.45148516 65.97481176 14.93217737 46.96855823 7.64599609 32.2644043 C3.94471555 26.11778335 -0.28321588 20.59472019 -6.84228516 17.31518555 C-7.12072266 18.30518555 -7.12072266 18.30518555 -7.40478516 19.31518555 C-11.46954903 27.79817102 -19.44223464 34.75941932 -28.15478516 38.19018555 C-31.84228516 39.31518555 -31.84228516 39.31518555 -34.84228516 39.31518555 C-34.92478516 40.03706055 -35.00728516 40.75893555 -35.09228516 41.50268555 C-36.49793273 46.77386395 -40.34651013 50.39293178 -44.84228516 53.31518555 C-47.61003613 53.23131431 -48.6290807 52.49996274 -50.71728516 50.69018555 C-52.85840518 49.01515568 -52.85840518 49.01515568 -55.96728516 49.44018555 C-59.13934342 50.07340512 -59.13934342 50.07340512 -60.84228516 53.31518555 C-61.59058017 58.84469186 -61.90589529 63.70365504 -58.77978516 68.44018555 C-55.39864606 70.59835944 -52.74473033 71.47348168 -48.84228516 72.31518555 C-48.59227236 80.05169275 -48.8969603 87.67375182 -49.59228516 95.37768555 C-49.65399902 96.19857666 -49.71571289 97.01946777 -49.77929688 97.86523438 C-50.12847158 101.37404086 -50.51492522 103.78072035 -52.37353516 106.81518555 C-56.00871085 109.0238999 -59.40723613 109.03445829 -63.59228516 109.25268555 C-71.09839927 109.80531841 -77.7213099 111.15488334 -84.76513672 113.81494141 C-89.3284414 115.46880894 -89.3284414 115.46880894 -92.11572266 114.63549805 C-95.34508305 112.16598716 -98.07335805 109.14878095 -99.65478516 105.37768555 C-99.71666016 104.69706055 -99.77853516 104.01643555 -99.84228516 103.31518555 C-99.96603516 102.30456055 -100.08978516 101.29393555 -100.21728516 100.25268555 C-99.8443935 96.33732321 -99.1856882 94.9499769 -97.34228516 91.62768555 C-94.53441815 86.01195154 -94.65710132 81.36222016 -94.90478516 75.25268555 C-95.18241999 67.08013932 -94.59080987 61.59434332 -88.84228516 55.31518555 C-87.68854538 54.17693221 -86.52195401 53.05154395 -85.34228516 51.94018555 C-78.80088085 45.75819906 -76.01758687 36.8544163 -72.84228516 28.62768555 C-70.51005601 22.61549846 -67.81768377 17.40490045 -63.84228516 12.31518555 C-63.33181641 11.63069336 -62.82134766 10.94620117 -62.29541016 10.2409668 C-55.69869336 1.9950708 -46.93904692 -2.95027481 -36.84228516 -5.68481445 C-24.47081597 -9.80863751 -11.18907692 -5.39576877 0 0 Z " fill="#263D62" transform="translate(265.84228515625,119.684814453125)"/>
<path d="M0 0 C1.29862473 -0.01283524 2.59724945 -0.02567047 3.93522644 -0.03889465 C5.36086648 -0.0470639 6.78651084 -0.05450728 8.2121582 -0.0612793 C9.28852508 -0.06739259 9.28852508 -0.06739259 10.38663673 -0.07362938 C14.18776792 -0.094497 17.98886297 -0.10879332 21.79003906 -0.11816406 C25.70633381 -0.12920501 29.62205667 -0.16357526 33.53814983 -0.20333576 C36.55716465 -0.22955748 39.57604468 -0.23786097 42.59516335 -0.24144554 C44.03799089 -0.24630049 45.48081285 -0.25788337 46.92352867 -0.27648354 C61.29010446 -0.45012826 61.29010446 -0.45012826 66.82543945 4.17700195 C71.49489422 9.23964405 71.39986717 13.89260268 71.3215332 20.4309082 C71.32298843 21.40938217 71.32444366 22.38785614 71.32594299 23.39598083 C71.32428795 25.45770251 71.31277105 27.51943705 71.29199219 29.58105469 C71.26300191 32.73271218 71.27139912 35.88268987 71.28442383 39.03442383 C71.27818693 41.04159344 71.26979637 43.04875776 71.2590332 45.0559082 C71.26196884 45.99559952 71.26490448 46.93529083 71.26792908 47.90345764 C71.18404137 53.73127254 70.5429608 57.43873617 66.2902832 61.72387695 C61.56333193 65.4474089 59.81418368 66.28352644 53.84887695 65.9309082 C38.7632778 64.92826117 38.7632778 64.92826117 25.4855957 70.8371582 C22.0457903 74.21082804 19.03596024 77.88135529 16.28808594 81.83764648 C15.8054126 82.27963379 15.32273926 82.72162109 14.82543945 83.17700195 C13.50543945 82.84700195 12.18543945 82.51700195 10.82543945 82.17700195 C10.82543945 76.89700195 10.82543945 71.61700195 10.82543945 66.17700195 C9.66786133 66.2234082 8.5102832 66.26981445 7.31762695 66.31762695 C5.7785904 66.35516443 4.23952575 66.39156247 2.70043945 66.42700195 C1.93989258 66.46051758 1.1793457 66.4940332 0.39575195 66.52856445 C-4.97549746 66.6211722 -7.89724758 65.71239789 -12.17456055 62.17700195 C-16.09929225 57.93404876 -17.27148076 54.75144656 -17.3515625 49.0703125 C-17.36439774 48.27235764 -17.37723297 47.47440277 -17.39045715 46.65226746 C-17.39784409 45.79804703 -17.40523102 44.9438266 -17.4128418 44.0637207 C-17.42091354 43.17594437 -17.42898529 42.28816803 -17.43730164 41.37348938 C-17.45111424 39.49657122 -17.46184899 37.61962824 -17.46972656 35.74267578 C-17.48125066 33.82918913 -17.50170926 31.91573473 -17.53125 30.00244141 C-17.57402758 27.23097997 -17.59010896 24.46047174 -17.6003418 21.6887207 C-17.61784988 20.84057297 -17.63535797 19.99242523 -17.65339661 19.11857605 C-17.63231128 13.29935316 -16.52434274 9.96311565 -13.17456055 5.17700195 C-8.58900922 1.0281698 -6.1200878 0.05252937 0 0 Z " fill="#253D62" transform="translate(500.174560546875,117.822998046875)"/>
<path d="M0 0 C1.0509082 0.49483887 2.10181641 0.98967773 3.18457031 1.49951172 C6.9568699 3.14353088 10.20445692 3.36868338 14.33984375 3.37109375 C15.74804895 3.38850457 17.15625202 3.40608857 18.56445312 3.42382812 C20.73580502 3.43378066 22.90699567 3.43752435 25.07836914 3.43579102 C39.94618627 3.46139281 55.26219223 4.70594043 66.54296875 15.47265625 C70.41508676 19.73085055 72.30618199 24.68727329 73.9375 30.125 C75.13563504 33.36701245 76.84189873 35.31872266 79 38 C83.46306569 46.28855056 82.57115996 54.03764931 80.3671875 62.9375 C76.19643932 76.37272209 69.06719275 91.93280725 59 102 C52.54562198 102.80679725 49.20019048 101.47055672 43.98046875 97.65234375 C40.40509741 94.66934162 37.73338648 91.3334662 36 87 C36 86.01 36 85.02 36 84 C37.093125 83.443125 38.18625 82.88625 39.3125 82.3125 C42.74885415 80.30622454 44.50924023 78.8097194 46 75 C47.47375615 67.72036005 47.47375615 67.72036005 45 61 C40.97756025 58.3183735 37.72734998 58.31042171 33 59 C29.66399633 61.05838525 28.1737824 62.7393264 26 66 C23.1875 65.9375 23.1875 65.9375 20 65 C18.59547036 62.58420902 17.85761199 60.63227442 17 58 C16.36191406 56.36804688 16.36191406 56.36804688 15.7109375 54.703125 C13.24224793 48.27625719 11.20314639 42.90606463 12 36 C12.33 35.34 12.66 34.68 13 34 C11.7625 34.061875 10.525 34.12375 9.25 34.1875 C1.15525247 34.17471209 -7.85326262 32.53206364 -14 27 C-17.84580665 22.04093353 -18.74757798 17.92746897 -18.5234375 11.66015625 C-17.67504269 7.34853787 -15.40364148 4.67763538 -12 2 C-8.14265864 -0.28526387 -4.40012929 -0.6971244 0 0 Z " fill="#263D62" transform="translate(591,215)"/>
<path d="M0 0 C0.90621094 0.20496094 1.81242188 0.40992188 2.74609375 0.62109375 C9.50058595 2.11494441 16.10659397 3.40574086 23 4 C22.9390918 4.8979126 22.9390918 4.8979126 22.87695312 5.81396484 C22.61314167 12.76593502 24.02430959 18.1729111 26.5 24.625 C26.83386719 25.53378906 27.16773438 26.44257813 27.51171875 27.37890625 C28.32695409 29.59168789 29.15635386 31.79792973 30 34 C32.86242661 34.7551411 32.86242661 34.7551411 36 35 C38.80618008 32.199326 38.80618008 32.199326 41 29 C44.47263273 27.26368364 48.21193013 27.39809598 52 28 C54.75569447 30.18159145 56.43588747 31.87177494 58 35 C58.05655292 41.28868487 57.25884521 46.14964851 53 51 C48.8 54 48.8 54 46 54 C48.90085679 61.05689199 51.95610964 66.54230258 59 70 C61.64 70.66 64.28 71.32 67 72 C67.33 79.26 67.66 86.52 68 94 C50.05357143 98.01785714 50.05357143 98.01785714 45.0625 98.9375 C39.10845098 100.08210554 33.2707377 101.73816204 27.42211914 103.32397461 C26.62281982 103.53932861 25.82352051 103.75468262 25 103.9765625 C23.9171875 104.27167725 23.9171875 104.27167725 22.8125 104.57275391 C21 105 21 105 19 105 C19 100.05 19 95.1 19 90 C18.34 90 17.68 90 17 90 C16.67 88.35 16.34 86.7 16 85 C15.42765625 85.15855469 14.8553125 85.31710937 14.265625 85.48046875 C7.9531586 86.9279826 2.44861203 86.47480962 -3.2109375 83.26171875 C-8.32078917 79.65804606 -10.8765785 75.13255119 -12 69 C-12.22168585 65.68127298 -12.19072385 62.38660996 -12.125 59.0625 C-12.11597656 58.18787109 -12.10695313 57.31324219 -12.09765625 56.41210938 C-12.0742957 54.27461936 -12.03843247 52.13727214 -12 50 C-12.78632812 49.69578125 -13.57265625 49.3915625 -14.3828125 49.078125 C-18.45736659 47.39965197 -18.45736659 47.39965197 -20 45 C-20.25181704 41.47456146 -19.44728277 39.5558659 -17.24609375 36.8203125 C-15.8596459 35.30364579 -14.44748745 33.80998722 -13.0078125 32.34375 C-8.86794144 27.51121569 -7.40545941 22.22463499 -6.0625 16.125 C-4.69629924 10.26295196 -3.05602069 5.2388926 0 0 Z " fill="#EDA174" transform="translate(581,245)"/>
<path d="M0 0 C7.61551942 2.53850647 12.19336642 9.04260635 15.875 15.9375 C22.76522369 31.01711413 21.2009448 49.63629483 15.75 64.9375 C12.70050299 72.24562403 8.89646124 78.04482717 1.46484375 81.33984375 C-6.46747484 83.46434746 -14.80736965 82.96763832 -22.08984375 79.15625 C-24.79863364 77.5165735 -27.4266134 75.84755961 -30 74 C-24.52269917 81.2561027 -19.35570391 84.87248339 -10.4375 86.75 C-9.633125 86.8325 -8.82875 86.915 -8 87 C-7.67 88.98 -7.34 90.96 -7 93 C-4.69 93.66 -2.38 94.32 0 95 C-2.74083874 101.54755921 -6.41669014 104.68568446 -12.5625 107.8125 C-22.39519593 111.07133637 -32.79958692 109.2777314 -42 105 C-46.81301887 102.12479233 -50.92312908 98.74350933 -54 94 C-54 93.01 -54 92.02 -54 91 C-50.04 90.01 -50.04 90.01 -46 89 C-43.1782008 77.7128032 -42.83163957 66.59816264 -43 55 C-44.85625 54.6596875 -44.85625 54.6596875 -46.75 54.3125 C-49.61082089 53.55671576 -51.08235098 52.93823676 -53.5 51.125 C-55.8751517 46.1767673 -55.85293167 41.37717794 -55 36 C-52.875 32.6875 -52.875 32.6875 -50 31 C-46.875 31 -46.875 31 -44 32 C-43 33 -42 34 -41 35 C-37.14438615 34.87147954 -34.67029958 32.6035421 -32 30 C-31.43014109 28.67847006 -30.8904543 27.34368427 -30.375 26 C-29.09377242 23.17713272 -28.40214377 22.19911973 -25.5859375 20.8046875 C-23.66772861 20.17585318 -21.74288201 19.56697189 -19.8125 18.9765625 C-11.90410299 16.23059132 -4.71349871 9.090027 -0.8046875 1.7578125 C-0.53914063 1.17773438 -0.27359375 0.59765625 0 0 Z " fill="#ECA074" transform="translate(259,137)"/>
<path d="M0 0 C0.9491629 -0.00902847 1.89832581 -0.01805695 2.87625122 -0.02735901 C4.87824365 -0.04182389 6.88028296 -0.05073886 8.88232422 -0.05444336 C11.92887723 -0.06634206 14.97340487 -0.11556677 18.01953125 -0.16601562 C19.97134435 -0.17548092 21.92316981 -0.18271544 23.875 -0.1875 C24.77733368 -0.20703232 25.67966736 -0.22656464 26.60934448 -0.24668884 C34.32109785 -0.19224859 39.10379973 2.44675889 44.54296875 7.80859375 C46.99823819 13.53546262 46.60560202 19.21350829 46.5078125 25.37109375 C46.51490234 26.62921875 46.52199219 27.88734375 46.52929688 29.18359375 C46.44271172 41.75842181 46.44271172 41.75842181 41.53515625 47.015625 C36.69137687 50.71969159 34.80548956 51.46960093 28.734375 51.23046875 C13.8165276 50.19495881 13.8165276 50.19495881 0.5546875 55.29296875 C-1.58735306 57.51255205 -3.29611552 59.87927459 -4.96875 62.46484375 C-6.9296875 65.37109375 -6.9296875 65.37109375 -10.9296875 66.37109375 C-10.9296875 61.42109375 -10.9296875 56.47109375 -10.9296875 51.37109375 C-12.5796875 50.71109375 -14.2296875 50.05109375 -15.9296875 49.37109375 C-20.11583307 45.6717093 -22.65181959 42.90300206 -23.26782227 37.29003906 C-23.35984141 34.09047042 -23.437324 30.89224087 -23.46508789 27.69140625 C-23.49194329 25.63975036 -23.56684932 23.5933201 -23.64257812 21.54296875 C-23.7576696 10.40649852 -23.7576696 10.40649852 -19.76953125 5.54296875 C-14.23957585 -0.05129747 -7.38124314 0.04367187 0 0 Z " fill="#E0DFDF" transform="translate(635.9296875,140.62890625)"/>
<path d="M0 0 C2.64362328 0.43139187 3.6446345 0.94941143 5.48339844 2.9375 C7.18369745 5.45237075 8.71279647 8.01585961 10.2109375 10.65625 C10.77111572 11.60588623 11.33129395 12.55552246 11.90844727 13.53393555 C13.58007681 16.39243883 15.21301416 19.26986994 16.8359375 22.15625 C17.28855957 22.94854004 17.74118164 23.74083008 18.20751953 24.55712891 C36.70259218 57.10127421 36.70259218 57.10127421 34.8359375 72.15625 C32.921875 73.921875 32.921875 73.921875 30.2109375 75.40625 C24.70458165 78.58436719 19.65989456 82.11094913 14.60888672 85.95605469 C11.29789082 88.39832863 10.09174587 89.15625 5.8359375 89.15625 C1.82234998 84.94022276 -1.0285092 79.81461571 -3.1015625 74.40625 C-4.88398302 70.0080695 -7.3885811 68.21821056 -11.26171875 65.62890625 C-15.05095195 62.69555734 -16.67058012 58.63669713 -18.1640625 54.15625 C-18.62797165 49.43984031 -18.87736898 46.48309671 -15.9140625 42.65625 C-13.1640625 40.15625 -13.1640625 40.15625 -9.1640625 40.15625 C-9.0609375 39.0425 -8.9578125 37.92875 -8.8515625 36.78125 C-8.6246875 35.585 -8.3978125 34.38875 -8.1640625 33.15625 C-5.1640625 31.15625 -5.1640625 31.15625 -1.1640625 31.15625 C-0.8340625 30.16625 -0.5040625 29.17625 -0.1640625 28.15625 C1.8159375 27.82625 3.7959375 27.49625 5.8359375 27.15625 C5.19785156 26.03347656 4.55976563 24.91070312 3.90234375 23.75390625 C3.06691532 22.2426256 2.2323244 20.73088177 1.3984375 19.21875 C0.97755859 18.48333984 0.55667969 17.74792969 0.12304688 16.99023438 C-2.80848348 11.61967077 -3.93030928 7.28777669 -4.1640625 1.15625 C-3.1640625 0.15625 -3.1640625 0.15625 0 0 Z " fill="#ECA174" transform="translate(464.1640625,318.84375)"/>
<path d="M0 0 C0.75998732 -0.00467997 1.51997463 -0.00935994 2.30299187 -0.01418173 C4.85728119 -0.02617668 7.41103844 -0.01665717 9.96533203 -0.00723267 C11.79339919 -0.01129638 13.6214639 -0.01663712 15.44952393 -0.02316284 C20.42052455 -0.03686612 25.39133886 -0.03152538 30.36234283 -0.02202559 C35.55797335 -0.01444457 40.75358763 -0.02147025 45.94921875 -0.02618408 C54.67532219 -0.03164618 63.40134952 -0.0244381 72.12744141 -0.01016235 C82.22436815 0.00616502 92.32111317 0.00087683 102.41803551 -0.01564157 C111.07795966 -0.02924349 119.73782901 -0.03118244 128.39776039 -0.02332556 C133.57394007 -0.01864192 138.75003427 -0.01804314 143.9262085 -0.02793503 C148.7919035 -0.0365836 153.65736359 -0.03062148 158.52303314 -0.01325226 C160.3117102 -0.00927611 162.10040693 -0.01044065 163.88907623 -0.01704025 C166.32508324 -0.0252015 168.76033085 -0.01500053 171.19628906 0 C171.90922056 -0.00669217 172.62215206 -0.01338433 173.35668755 -0.02027929 C176.24313337 0.01435287 178.16038921 0.07859772 180.57247925 1.74460411 C181.59814453 3.38095093 181.59814453 3.38095093 181.41064453 5.94345093 C180.59814453 8.38095093 180.59814453 8.38095093 178.59814453 10.38095093 C176.11921845 10.5783284 173.75192966 10.65027699 171.27185059 10.63491821 C170.50792858 10.63803819 169.74400657 10.64115818 168.95693541 10.6443727 C166.38348515 10.65238403 163.81026864 10.64601696 161.23681641 10.63973999 C159.39742392 10.64244846 157.55803252 10.64600858 155.71864319 10.65036011 C150.71256175 10.65950348 145.70656244 10.65593185 140.70047951 10.64960194 C135.47101234 10.644552 130.24155239 10.64923058 125.01208496 10.65237427 C116.22874687 10.65601686 107.44544237 10.65120715 98.66210938 10.64169312 C88.49534968 10.63080801 78.32867019 10.63433338 68.16191244 10.64534593 C59.44598245 10.65441047 50.73007665 10.65570816 42.01414347 10.65046859 C36.80278616 10.6473443 31.5914666 10.64695209 26.38011169 10.65354156 C21.48165047 10.65930232 16.58329303 10.65534153 11.68484306 10.64375305 C9.88284414 10.64109964 8.08083654 10.64188309 6.27884102 10.64627838 C3.82725399 10.65170855 1.37600379 10.6449308 -1.07556152 10.63491821 C-2.15618764 10.64161038 -2.15618764 10.64161038 -3.25864458 10.64843774 C-8.17355529 10.6092511 -8.17355529 10.6092511 -10.40185547 8.38095093 C-10.74803885 5.68072053 -10.84270419 4.06348567 -9.34494019 1.74460411 C-6.4118128 -0.31385915 -3.45502542 -0.03243173 0 0 Z " fill="#DDDDDC" transform="translate(200.40185546875,291.6190490722656)"/>
<path d="M0 0 C8.09245447 -0.08551228 16.18487959 -0.15204481 24.2776432 -0.20026779 C28.79300189 -0.22793115 33.30770307 -0.26599593 37.82270527 -0.32998466 C41.97718724 -0.38872791 46.13091497 -0.41999617 50.28579426 -0.42892456 C51.77016324 -0.43702366 53.25452071 -0.45529963 54.73861408 -0.48502731 C67.01851615 -0.72275969 67.01851615 -0.72275969 71.557477 2.96859932 C75.91507161 7.42404551 76.55664275 11.55946409 76.52398396 17.6437397 C76.5278095 18.39838119 76.53163505 19.15302268 76.53557652 19.9305321 C76.54590041 22.46078865 76.54191555 24.99081801 76.53794575 27.52108955 C76.54229259 29.33458351 76.54747565 31.14807563 76.55343342 32.96156502 C76.56683838 37.88928046 76.56740037 42.81691928 76.56487012 47.74464941 C76.56380131 51.85750912 76.56868151 55.97035326 76.57347554 60.08320963 C76.58457614 69.78631032 76.58500517 79.4893723 76.57896137 89.19247627 C76.57292159 99.20358337 76.58523145 109.21454991 76.60653144 119.22563303 C76.62414377 127.81937601 76.63014934 136.41307425 76.6268937 145.00683463 C76.62507994 150.14006725 76.62772619 155.27319965 76.64160824 160.40641594 C76.65417575 165.23436525 76.65225264 170.06209544 76.63919735 174.89004135 C76.63682959 176.66133828 76.63957341 178.43265058 76.64782047 180.2039299 C76.65827297 182.62349281 76.65019965 185.04231848 76.63750935 187.46185493 C76.64488363 188.16147484 76.65225792 188.86109475 76.65985566 189.58191526 C76.60930699 194.16860364 75.65666745 197.27769633 73.26328754 201.17978096 C67.97761227 206.06903059 63.72270533 206.32850572 56.7806673 206.32695198 C55.90437367 206.33062867 55.02808003 206.33430536 54.12523204 206.33809346 C51.17734819 206.34914122 48.22949956 206.35297597 45.28159809 206.35678291 C43.17268988 206.36304666 41.06378278 206.36969338 38.9548769 206.37669563 C33.2172352 206.39411169 27.47960184 206.40465872 21.74194026 206.41290116 C18.15901052 206.41804927 14.57608338 206.42412504 10.99315548 206.43041229 C-0.21202485 206.44946473 -11.41719858 206.46369663 -22.622392 206.47202426 C-35.56648511 206.48180257 -48.51040749 206.50813748 -61.45444041 206.54852515 C-71.45366415 206.57865649 -81.45283886 206.59349024 -91.45210713 206.59680527 C-97.42711658 206.59915885 -103.40194364 206.60815954 -109.37690449 206.63326645 C-114.99690424 206.65650039 -120.61660088 206.66079916 -126.23663616 206.65050507 C-128.29981461 206.65000848 -130.36300774 206.65636482 -132.42614079 206.67006111 C-135.24217292 206.68771036 -138.05710904 206.68070817 -140.87314129 206.66752815 C-142.098687 206.68398202 -142.098687 206.68398202 -143.34899122 206.70076829 C-148.59524957 206.64145864 -151.57314161 205.65075992 -155.73671246 202.17978096 C-158.62375599 197.9985455 -159.86198311 195.20206229 -159.85696697 190.15582466 C-159.85902897 188.56142555 -159.85902897 188.56142555 -159.86113262 186.93481636 C-159.85753735 185.76381386 -159.85394207 184.59281136 -159.85023785 183.38632393 C-159.85038387 182.15708199 -159.8505299 180.92784004 -159.85068035 179.66134834 C-159.850102 176.28551754 -159.84507782 172.90974748 -159.83810639 169.53392744 C-159.83186604 166.00785023 -159.83126852 162.48177226 -159.83008099 158.95569038 C-159.82696969 152.27629772 -159.818759 145.59692137 -159.8087315 138.9175359 C-159.79756412 131.31425071 -159.79205833 123.71096475 -159.78703606 116.10767341 C-159.77657623 100.46503313 -159.75898067 84.82240915 -159.73671246 69.17978096 C-159.07671246 69.17978096 -158.41671246 69.17978096 -157.73671246 69.17978096 C-157.7343241 69.81846674 -157.73193575 70.45715252 -157.72947502 71.11519241 C-157.67030781 86.66452461 -157.59474684 102.21367799 -157.50099754 117.76283646 C-157.45605508 125.28233754 -157.41663689 132.80179144 -157.39027691 140.32138252 C-157.36728421 146.87638794 -157.3338721 153.43124381 -157.2880109 159.9861306 C-157.26409563 163.45607964 -157.24535582 166.92588072 -157.23909855 170.39591026 C-157.23191345 174.27211159 -157.20146359 178.14794248 -157.1690855 182.02401924 C-157.17052059 183.1712899 -157.17195568 184.31856056 -157.17343426 185.500597 C-157.12510656 193.29457862 -157.12510656 193.29457862 -153.73671246 200.17978096 C-149.41816814 203.5771889 -145.33367339 203.6064605 -140.05154705 203.56746101 C-138.74066865 203.57553932 -138.74066865 203.57553932 -137.40330786 203.58378083 C-134.47531831 203.5980869 -131.54777917 203.59095012 -128.6197691 203.58383369 C-126.52041542 203.58953587 -124.42106484 203.59649953 -122.32171917 203.60463142 C-116.61927031 203.62259467 -110.91697506 203.62138848 -105.21450639 203.61568904 C-100.45540615 203.61260181 -95.69633561 203.61868445 -90.93723959 203.62472779 C-79.71094832 203.63878178 -68.48473314 203.6372044 -57.25844097 203.62582588 C-45.67324937 203.61434315 -34.08828921 203.62842108 -22.50312811 203.65522236 C-12.55905019 203.6773666 -2.61504499 203.68401962 7.32905585 203.67814595 C13.26936227 203.67477221 19.20952031 203.67721924 25.14980602 203.69439697 C30.73538951 203.70984363 36.32062965 203.70593567 41.90619946 203.68709183 C43.95646822 203.68339967 46.0067623 203.68653258 48.05700779 203.69697762 C50.85544902 203.71014619 53.65274667 203.69867662 56.4511385 203.6809864 C57.26291378 203.69059141 58.07468907 203.70019642 58.91106361 203.71009248 C64.1228909 203.64228161 67.17660556 202.70199154 71.26328754 199.17978096 C73.88136482 195.74397891 73.54624509 191.86032065 73.52398396 187.70909309 C73.5278095 186.95374604 73.53163505 186.19839898 73.53557652 185.42016262 C73.54590037 182.88757216 73.54191558 180.35520867 73.53794575 177.82260323 C73.54229256 176.00748675 73.5474756 174.19237211 73.55343342 172.37726021 C73.56683781 167.44547982 73.5674005 162.513776 73.56487012 157.58198094 C73.56380141 153.46654165 73.56868118 149.35111792 73.57347554 145.23568195 C73.58457564 135.5278275 73.58500526 125.82001174 73.57896137 116.11215401 C73.5729197 106.09307456 73.58523636 96.07413549 73.60653144 86.05508 C73.6241367 77.45625714 73.63015051 68.85747902 73.6268937 60.2586388 C73.62507903 55.1215257 73.62773536 49.98451273 73.64160824 44.84741592 C73.6541645 40.01700739 73.65226336 35.18681798 73.63919735 30.35641289 C73.63682724 28.58308336 73.63958178 26.80973852 73.64782047 25.03642654 C73.65825301 22.6165129 73.65021581 20.19733928 73.63750935 17.77745247 C73.64488363 17.07491972 73.65225792 16.37238697 73.65985566 15.64856535 C73.61204913 11.32390141 72.91956072 8.61186778 70.26328754 5.17978096 C66.4024687 2.60590173 63.21767839 2.89084371 58.74029255 2.90130806 C57.85976552 2.89551566 56.97923849 2.88972326 56.07202882 2.88375533 C53.11011027 2.86669762 50.148347 2.86387387 47.18638325 2.8609333 C45.06773716 2.85163911 42.94909476 2.84147121 40.83045673 2.83049202 C35.06842927 2.8031206 29.30642635 2.78802148 23.54435086 2.77506399 C17.52649596 2.75946464 11.50869141 2.73266429 5.49087238 2.70703316 C-5.90940869 2.66018866 -17.30969919 2.62347202 -28.71002752 2.59036028 C-41.68690667 2.55217892 -54.66373532 2.50275836 -67.64057195 2.45237613 C-94.33924805 2.34897193 -121.03795658 2.25973918 -147.73671246 2.17978096 C-147.73671246 1.84978096 -147.73671246 1.51978096 -147.73671246 1.17978096 C-121.88942155 0.95462438 -96.04211055 0.73272624 -70.19447613 0.55063057 C-69.45627719 0.54542503 -68.71807824 0.54021949 -67.95750964 0.5348562 C-60.49188095 0.48231864 -53.02624632 0.43070921 -45.56060344 0.38022918 C-30.37342317 0.27730269 -15.18669272 0.16201281 0 0 Z " fill="#D6D8DB" transform="translate(329.7367124557495,266.820219039917)"/>
<path d="M0 0 C0.91555664 -0.00571014 1.83111328 -0.01142029 2.77441406 -0.01730347 C4.28540428 -0.01898026 4.28540428 -0.01898026 5.82691956 -0.02069092 C6.88553192 -0.02565582 7.94414429 -0.03062073 9.03483582 -0.03573608 C12.54830059 -0.05038101 16.06172025 -0.05716303 19.57521057 -0.06268311 C22.00897219 -0.06843192 24.44273379 -0.07418968 26.87649536 -0.07995605 C31.9835074 -0.0904722 37.09050367 -0.09631109 42.19752502 -0.09979248 C48.75288783 -0.10528342 55.30804357 -0.12932184 61.86334133 -0.15776443 C66.89124163 -0.17635317 71.91909163 -0.18159437 76.94702339 -0.18312836 C79.36442766 -0.18616311 81.78183088 -0.19421913 84.19920158 -0.20731354 C87.57526975 -0.22429784 90.95082645 -0.22251249 94.32691956 -0.21600342 C95.83487343 -0.22982559 95.83487343 -0.22982559 97.37329102 -0.243927 C98.29166748 -0.23835785 99.21004395 -0.2327887 100.15625 -0.22705078 C100.95469047 -0.22851734 101.75313093 -0.2299839 102.57576656 -0.2314949 C105.17293515 0.23610073 106.08833673 1.03520555 107.64161682 3.14044189 C107.39708558 6.48236882 107.03618125 7.74587747 104.64161682 10.14044189 C102.7016077 10.39491749 102.7016077 10.39491749 100.28323364 10.40113831 C98.90989868 10.41176552 98.90989868 10.41176552 97.50881958 10.42260742 C96.50149277 10.42013 95.49416595 10.41765259 94.45631409 10.4151001 C93.39770172 10.42021103 92.33908936 10.42532196 91.24839783 10.43058777 C87.73488271 10.44453401 84.22156264 10.44352321 80.70802307 10.44122314 C78.27426073 10.44510731 75.84049906 10.44944139 73.40673828 10.45420837 C68.29970606 10.46168143 63.19274296 10.46137145 58.08570862 10.45611572 C51.53032681 10.45031972 44.97522741 10.46725027 38.41989231 10.4904604 C33.39198137 10.50516845 28.36413889 10.50607343 23.33621025 10.50295067 C20.91881183 10.50346536 18.50140972 10.50873055 16.08403206 10.51876259 C12.70793761 10.53105281 9.33239915 10.52437967 5.95631409 10.51275635 C4.95101151 10.52040009 3.94570892 10.52804382 2.90994263 10.53591919 C1.99156616 10.52890488 1.0731897 10.52189056 0.12698364 10.5146637 C-1.07067706 10.51491531 -1.07067706 10.51491531 -2.29253292 10.515172 C-4.90196488 10.04184015 -5.816131 9.27508056 -7.35838318 7.14044189 C-7.17088318 4.01544189 -7.17088318 4.01544189 -6.35838318 1.14044189 C-4.01093402 -0.03328269 -2.61676138 0.00975359 0 0 Z " fill="#DDDDDC" transform="translate(197.35838317871094,312.85955810546875)"/>
<path d="M0 0 C1.66611905 -0.042721 3.33382885 -0.04063832 5 0 C6 1 6 1 6.1328125 3.21484375 C6.13023437 4.11332031 6.12765625 5.01179687 6.125 5.9375 C6.12886719 7.28134766 6.12886719 7.28134766 6.1328125 8.65234375 C6 11 6 11 5 13 C5.75925781 12.96519531 6.51851562 12.93039063 7.30078125 12.89453125 C8.79158203 12.85392578 8.79158203 12.85392578 10.3125 12.8125 C11.29863281 12.77769531 12.28476562 12.74289063 13.30078125 12.70703125 C16 13 16 13 17.86328125 14.19140625 C20.24626937 17.98289593 18.74796817 22.80244731 18 27 C15.84189723 35.15810277 15.84189723 35.15810277 14 37 C12.38916255 37.0991918 10.77404356 37.1307982 9.16015625 37.1328125 C8.17982422 37.13410156 7.19949219 37.13539063 6.18945312 37.13671875 C4.64161133 37.13091797 4.64161133 37.13091797 3.0625 37.125 C1.52045898 37.13080078 1.52045898 37.13080078 -0.05273438 37.13671875 C-1.03435547 37.13542969 -2.01597656 37.13414062 -3.02734375 37.1328125 C-3.93218506 37.13168457 -4.83702637 37.13055664 -5.76928711 37.12939453 C-8 37 -8 37 -10 36 C-11.03447846 16.99624757 -11.03447846 16.99624757 -7.25 12.375 C-6.43402344 11.55128906 -6.43402344 11.55128906 -5.6015625 10.7109375 C-2.77417595 7.69046113 -1.49834397 3.80755644 0 0 Z " fill="#E8E6E6" transform="translate(529,132)"/>
<path d="M0 0 C0.9075 0.37125 1.815 0.7425 2.75 1.125 C3.4925 1.41375 4.235 1.7025 5 2 C5.99 1.34 6.98 0.68 8 0 C11.70485832 -0.48324239 13.52592056 -0.26337747 16.8125 1.5625 C19.73955457 4.82407509 20.14823347 6.62711251 20 11 C17.25580979 17.15736212 10.8113118 23.51340487 4.56640625 25.94921875 C0.8353799 26.02304423 -0.40110536 24.46726461 -3.0625 21.9375 C-11.4794407 13.8341562 -11.4794407 13.8341562 -12.5625 7.9375 C-11.21311342 0.89070344 -6.61393816 -0.82674227 0 0 Z " fill="#DCDCDB" transform="translate(202,427)"/>
<path d="M0 0 C1.94712891 0.00193359 1.94712891 0.00193359 3.93359375 0.00390625 C7.96012008 0.48500897 10.67382268 1.54882268 13.5625 4.4375 C13.71459159 6.37081809 13.78436331 8.31091284 13.8125 10.25 C13.83828125 11.30832031 13.8640625 12.36664063 13.890625 13.45703125 C13.52466852 16.78113593 12.90009351 18.08898315 10.5625 20.4375 C8.57526732 21.14131157 6.57472047 21.8086811 4.5625 22.4375 C2.72560524 23.93636871 2.72560524 23.93636871 1.5625 25.4375 C0.5725 25.1075 -0.4175 24.7775 -1.4375 24.4375 C-1.1075 23.1175 -0.7775 21.7975 -0.4375 20.4375 C-1.695625 20.499375 -2.95375 20.56125 -4.25 20.625 C-6.77773297 20.74931474 -8.02445927 20.70169723 -10.171875 19.328125 C-12.02850379 16.55464249 -11.87124665 14.30670193 -11.875 11 C-11.89433594 9.86691406 -11.91367188 8.73382813 -11.93359375 7.56640625 C-11.4375 4.4375 -11.4375 4.4375 -9.875 2.0546875 C-6.49126453 -0.19029084 -4.0312738 -0.05992974 0 0 Z " fill="#DCDCDC" transform="translate(244.4375,427.5625)"/>
<path d="M0 0 C0.99 0.495 0.99 0.495 2 1 C-5.97409581 28.2891279 -30.91505902 69.76802759 -56.2734375 84.2734375 C-58.59289111 85.24949716 -60.52436362 85.38681818 -63 85 C-60.80476717 82.63856658 -58.54994277 81.00341598 -55.8125 79.3125 C-30.80582842 62.77583009 -15.67922293 28.45128551 -1.98828125 2.765625 C-1 1 -1 1 0 0 Z " fill="#2A3B5B" transform="translate(621,413)"/>
<path d="M0 0 C3 0.1875 3 0.1875 5 1.1875 C5.02887814 4.66664941 5.04675687 8.14576831 5.0625 11.625 C5.07087891 12.61822266 5.07925781 13.61144531 5.08789062 14.63476562 C5.09111328 15.57900391 5.09433594 16.52324219 5.09765625 17.49609375 C5.10289307 18.37064209 5.10812988 19.24519043 5.11352539 20.14624023 C5 22.1875 5 22.1875 4 23.1875 C2.1875 23.3203125 2.1875 23.3203125 0 23.3125 C-0.721875 23.31507813 -1.44375 23.31765625 -2.1875 23.3203125 C-4 23.1875 -4 23.1875 -5 22.1875 C-5.25035974 18.88233066 -5.18521952 15.56353959 -5.1875 12.25 C-5.19974609 11.31736328 -5.21199219 10.38472656 -5.22460938 9.42382812 C-5.22654297 8.53244141 -5.22847656 7.64105469 -5.23046875 6.72265625 C-5.23663208 5.49107788 -5.23663208 5.49107788 -5.24291992 4.23461914 C-4.81754066 0.64989041 -3.43140468 0.21446279 0 0 Z " fill="#E2E1E2" transform="translate(512,146.8125)"/>
<path d="M0 0 C0.99 0.66 1.98 1.32 3 2 C2.50683684 6.93163163 1.70216003 10.79663996 -1 15 C-3.0625 16 -3.0625 16 -5 16 C-5.66 15.34 -6.32 14.68 -7 14 C-6.625 11.375 -6.625 11.375 -6 9 C-4.35 8.67 -2.7 8.34 -1 8 C-1 7.01 -1 6.02 -1 5 C-3.97 4.67 -6.94 4.34 -10 4 C-10 3.01 -10 2.02 -10 1 C-6.87293041 -0.5635348 -3.42017557 -0.39958487 0 0 Z " fill="#DC9D77" transform="translate(273,160)"/>
<path d="M0 0 C5.28 0.99 10.56 1.98 16 3 C16 4.32 16 5.64 16 7 C14.28310511 8.71689489 12.09121863 8.25303054 9.75 8.3125 C5.72927229 8.29681446 4.30379787 8.19061827 0.8125 6 C0.214375 5.34 -0.38375 4.68 -1 4 C-0.67 2.68 -0.34 1.36 0 0 Z " fill="#243B60" transform="translate(245,196)"/>
<path d="M0 0 C4.05953998 0.180424 5.56501211 0.53067096 8.375 3.5625 C8.91125 4.366875 9.4475 5.17125 10 6 C9.01 6.33 8.02 6.66 7 7 C7 9.31 7 11.62 7 14 C6.34 14 5.68 14 5 14 C1 8.58823529 1 8.58823529 1 6 C1.66 6 2.32 6 3 6 C2.24849977 2.72226496 2.24849977 2.72226496 -1 1 C-0.67 0.67 -0.34 0.34 0 0 Z " fill="#E59F75" transform="translate(209,168)"/>
<path d="M0 0 C0.66 0 1.32 0 2 0 C2.48828125 1.98567708 2.9765625 3.97135417 3.46484375 5.95703125 C3.91010705 7.65683202 4.44433985 9.33301954 5 11 C5.23188622 13.72331488 5.13093368 16.25039269 5 19 C3 21 3 21 0.375 21.125 C-0.40875 21.08375 -1.1925 21.0425 -2 21 C-2 20.01 -2 19.02 -2 18 C-0.68 17.67 0.64 17.34 2 17 C1.855625 16.443125 1.71125 15.88625 1.5625 15.3125 C0.28453328 10.05863683 -0.19646963 5.40291471 0 0 Z " fill="#273A5D" transform="translate(259,170)"/>
<path d="M0 0 C-1 3 -1 3 -2.703125 4.1796875 C-5.50938831 5.1819244 -7.77693736 5.19578721 -10.75 5.125 C-11.73484375 5.10695313 -12.7196875 5.08890625 -13.734375 5.0703125 C-14.85585938 5.03550781 -14.85585938 5.03550781 -16 5 C-16 3.68 -16 2.36 -16 1 C-10.65097076 0.40801257 -5.39115154 -0.14187241 0 0 Z " fill="#283D60" transform="translate(585,304)"/>
<path d="M0 0 C5.97419782 -0.59741978 5.97419782 -0.59741978 8.73046875 1.0078125 C11.29475425 3.12255659 13.15539803 5.23309704 15 8 C15 8.99 15 9.98 15 11 C14.01 11 13.02 11 12 11 C10.96210419 9.35666496 9.96432076 7.68756133 9 6 C5.81237635 3.87491756 3.73487777 3.4979837 0 3 C0 2.01 0 1.02 0 0 Z " fill="#2F3F5E" transform="translate(464,347)"/>
<path d="M0 0 C1 1 1 1 1.125 3.5 C1 6 1 6 0 7 C-2.4375 7.1875 -2.4375 7.1875 -5 7 C-5.66 6.34 -6.32 5.68 -7 5 C-6.75 2.4375 -6.75 2.4375 -6 0 C-3.49749232 -1.25125384 -2.59701335 -0.83774624 0 0 Z " fill="#666D86" transform="translate(635,164)"/>
<path d="M0 0 C2.625 0.375 2.625 0.375 5 1 C5.625 3.375 5.625 3.375 6 6 C5.34 6.66 4.68 7.32 4 8 C1.375 7.625 1.375 7.625 -1 7 C-1.625 4.625 -1.625 4.625 -2 2 C-1.34 1.34 -0.68 0.68 0 0 Z " fill="#697088" transform="translate(646,163)"/>
<path d="M0 0 C-0.47302366 4.25721298 -2.81018931 6.32946082 -6 9 C-7.32 9 -8.64 9 -10 9 C-10.33 7.35 -10.66 5.7 -11 4 C-9.5437455 3.32880451 -8.08492133 2.66318193 -6.625 2 C-5.81289063 1.62875 -5.00078125 1.2575 -4.1640625 0.875 C-2 0 -2 0 0 0 Z " fill="#243A5E" transform="translate(608,325)"/>
<path d="M0 0 C0.99 0.66 1.98 1.32 3 2 C3 2.66 3 3.32 3 4 C1.98679688 4.09087891 1.98679688 4.09087891 0.953125 4.18359375 C0.06109375 4.26738281 -0.8309375 4.35117188 -1.75 4.4375 C-2.63171875 4.51871094 -3.5134375 4.59992188 -4.421875 4.68359375 C-6.69350452 4.96238465 -8.79851823 5.38790577 -11 6 C-10.75 4.125 -10.75 4.125 -10 2 C-6.83218212 -0.34653177 -3.84218115 -0.32699414 0 0 Z " fill="#2E3E5E" transform="translate(246,159)"/>
<path d="M0 0 C2.625 0.375 2.625 0.375 5 1 C5.38218767 2.65614657 5.71395102 4.32457024 6 6 C5 7 5 7 1.9375 7.0625 C0.968125 7.041875 -0.00125 7.02125 -1 7 C-1.625 4.625 -1.625 4.625 -2 2 C-1.34 1.34 -0.68 0.68 0 0 Z " fill="#283E60" transform="translate(661,164)"/>
<path d="M0 0 C3.59981466 1.44775155 5.15103283 3.20954292 7.25 6.4375 C7.77078125 7.21996094 8.2915625 8.00242187 8.828125 8.80859375 C10 11 10 11 10 14 C6.40018534 12.55224845 4.84896717 10.79045708 2.75 7.5625 C2.22921875 6.78003906 1.7084375 5.99757813 1.171875 5.19140625 C0 3 0 3 0 0 Z " fill="#33425F" transform="translate(540,433)"/>
<path d="M0 0 C8.19256018 -0.4726477 8.19256018 -0.4726477 11.5625 1.5 C12.036875 1.995 12.51125 2.49 13 3 C12.67 4.32 12.34 5.64 12 7 C11.505 6.525625 11.01 6.05125 10.5 5.5625 C7.00531349 3.37832093 4.09033064 3.34086089 0 3 C0 2.01 0 1.02 0 0 Z " fill="#293C5E" transform="translate(580,259)"/>
<path d="M0 0 C0.99 0.66 1.98 1.32 3 2 C3 2.99 3 3.98 3 5 C2.31292969 4.9278125 1.62585938 4.855625 0.91796875 4.78125 C0.01691406 4.6884375 -0.88414062 4.595625 -1.8125 4.5 C-2.70582031 4.4071875 -3.59914063 4.314375 -4.51953125 4.21875 C-7.08305099 3.95607599 -7.08305099 3.95607599 -10 4 C-10 3.01 -10 2.02 -10 1 C-6.87293041 -0.5635348 -3.42017557 -0.39958487 0 0 Z " fill="#23385C" transform="translate(273,160)"/>
<path d="M0 0 C2.6074028 -0.38344159 4.38063153 -0.374232 6.66796875 1.0078125 C8.3125 2.3125 8.3125 2.3125 11 5 C11 5.99 11 6.98 11 8 C7.22272911 6.18690997 3.62730178 4.0926741 0 2 C0 1.34 0 0.68 0 0 Z " fill="#303E5D" transform="translate(456,360)"/>
<path d="M0 0 C0.86625 0.37125 0.86625 0.37125 1.75 0.75 C0.48046875 2.21484375 -0.7890625 3.6796875 -2.05859375 5.14453125 C-3.45871231 6.85712971 -3.45871231 6.85712971 -4.25 9.75 C-5.24 9.75 -6.23 9.75 -7.25 9.75 C-6.9314443 6.24588735 -6.55932553 4.1659895 -4.4375 1.3125 C-2.25 -0.25 -2.25 -0.25 0 0 Z " fill="#2B3C5D" transform="translate(630.25,279.25)"/>
<path d="M0 0 C1.65 0.33 3.3 0.66 5 1 C5 2.65 5 4.3 5 6 C3.125 6.625 3.125 6.625 1 7 C0.34 6.34 -0.32 5.68 -1 5 C-0.625 2.375 -0.625 2.375 0 0 Z " fill="#263C60" transform="translate(267,169)"/>
<path d="M0 0 C0 0.99 0 1.98 0 3 C-0.9075 3.144375 -1.815 3.28875 -2.75 3.4375 C-5.85213759 3.90035441 -5.85213759 3.90035441 -8.1875 4.6875 C-10 5 -10 5 -13 3 C-9.21656826 -0.94792877 -5.07874402 -0.29300446 0 0 Z " fill="#3C465F" transform="translate(255,219)"/>
<path d="M0 0 C2.0625 0.4375 2.0625 0.4375 4 1 C4 2.65 4 4.3 4 6 C2.0625 6.5625 2.0625 6.5625 0 7 C-1 6 -1 6 -1.125 3.5 C-1 1 -1 1 0 0 Z " fill="#21395F" transform="translate(242,169)"/>
<path d="M0 0 C0.66 0.33 1.32 0.66 2 1 C0.65463623 5.4030087 -1.16052312 7.471564 -5 10 C-5.99 10 -6.98 10 -8 10 C-8 9.34 -8 8.68 -8 8 C-7.05125 7.38125 -6.1025 6.7625 -5.125 6.125 C-2.17758128 4.12075527 -1.16146167 3.25209269 0 0 Z " fill="#DADAD9" transform="translate(403,462)"/>
<path d="M0 0 C0.99 0.33 1.98 0.66 3 1 C3 2.98 3 4.96 3 7 C1.68 7.33 0.36 7.66 -1 8 C-1.125 2.25 -1.125 2.25 0 0 Z " fill="#21385C" transform="translate(582,271)"/>
<path d="M0 0 C0.66 0.33 1.32 0.66 2 1 C2 3.97 2 6.94 2 10 C1.01 10.495 1.01 10.495 0 11 C-1.62651522 7.74696956 -1.11453156 4.60774398 -1 1 C-0.67 0.67 -0.34 0.34 0 0 Z " fill="#334260" transform="translate(604,250)"/>
<path d="M0 0 C0.598125 0.350625 1.19625 0.70125 1.8125 1.0625 C0.4925 2.7125 -0.8275 4.3625 -2.1875 6.0625 C-2.1875 5.4025 -2.1875 4.7425 -2.1875 4.0625 C-2.8475 4.0625 -3.5075 4.0625 -4.1875 4.0625 C-4.5175 2.7425 -4.8475 1.4225 -5.1875 0.0625 C-2.1875 -0.9375 -2.1875 -0.9375 0 0 Z " fill="#DB9B74" transform="translate(236.1875,158.9375)"/>
<path d="M0 0 C0.66 0.66 1.32 1.32 2 2 C1.67 2.66 1.34 3.32 1 4 C1.66 4.33 2.32 4.66 3 5 C1.35 5.33 -0.3 5.66 -2 6 C-2.33 4.35 -2.66 2.7 -3 1 C-2.01 0.67 -1.02 0.34 0 0 Z " fill="#2E4161" transform="translate(600,328)"/>
<path d="M0 0 C3.16115776 1.36983503 3.9927092 1.9890638 6 5 C6 5.99 6 6.98 6 8 C5.34 8 4.68 8 4 8 C0 2.58823529 0 2.58823529 0 0 Z " fill="#1F365C" transform="translate(210,174)"/>
<path d="M0 0 C2 1.8125 2 1.8125 4 4 C4 4.99 4 5.98 4 7 C2.0625 6.25 2.0625 6.25 0 5 C-0.8125 2.9375 -0.8125 2.9375 -1 1 C-0.67 0.67 -0.34 0.34 0 0 Z " fill="#29395A" transform="translate(546,440)"/>
<path d="M0 0 C1.65 0.33 3.3 0.66 5 1 C4.34 2.32 3.68 3.64 3 5 C2.34 5 1.68 5 1 5 C1 4.34 1 3.68 1 3 C0.34 2.67 -0.32 2.34 -1 2 C-0.67 1.34 -0.34 0.68 0 0 Z " fill="#34425F" transform="translate(257,199)"/>
<path d="M0 0 C0.66 0.33 1.32 0.66 2 1 C0.25 5.875 0.25 5.875 -2 7 C-2.66 6.34 -3.32 5.68 -4 5 C-2.68 3.35 -1.36 1.7 0 0 Z " fill="#1E345B" transform="translate(589,467)"/>
<path d="M0 0 C0.99 0.495 0.99 0.495 2 1 C2.625 4.0625 2.625 4.0625 3 7 C2.01 7 1.02 7 0 7 C0 4.69 0 2.38 0 0 Z " fill="#DC9C75" transform="translate(259,180)"/>
</svg>
