<?xml version="1.0" encoding="UTF-8"?>
<svg version="1.1" xmlns="http://www.w3.org/2000/svg" width="199" height="195">
<path d="M0 0 C4.47049977 0.65025451 6.58442102 2.55545941 9.99609375 5.3828125 C11.4375 7.5 11.4375 7.5 11.51953125 10.2265625 C10.03130586 14.72884727 7.53896825 17.99925405 4.6875 21.75 C3.50472197 23.34208671 2.32244535 24.93454602 1.140625 26.52734375 C0.53025391 27.34315918 -0.08011719 28.15897461 -0.70898438 28.99951172 C-2.54865689 31.48132493 -4.35058609 33.98610896 -6.140625 36.50390625 C-6.71458008 37.30989258 -7.28853516 38.11587891 -7.87988281 38.94628906 C-8.97540475 40.48688665 -10.06862544 42.0291241 -11.15917969 43.57324219 C-16.00926637 50.34476896 -21.03712851 55.12946693 -28.1875 59.375 C-28.85523437 59.79007813 -29.52296875 60.20515625 -30.2109375 60.6328125 C-31.94628666 61.674022 -33.75157337 62.59661821 -35.5625 63.5 C-36.5525 63.17 -37.5425 62.84 -38.5625 62.5 C-37.00215564 49.92072895 -33.38519859 40.60718626 -25.3125 30.890625 C-22.2550993 27.20685137 -19.60464321 23.28349734 -16.9375 19.3125 C-4.4543937 0.86914999 -4.4543937 0.86914999 0 0 Z M-29.5625 46.5 C-30.81914978 49.40600261 -31.5625 51.29604584 -31.5625 54.5 C-28.29295798 53.93628586 -26.73674117 53.00037734 -24.5625 50.5 C-26.2125 49.18 -27.8625 47.86 -29.5625 46.5 Z " fill="#29384E" transform="translate(135.5625,67.5)"/>
<path d="M0 0 C1.51176819 -0.01891296 1.51176819 -0.01891296 3.05407715 -0.03820801 C4.13644653 -0.03011108 5.21881592 -0.02201416 6.33398438 -0.01367188 C7.45083618 -0.01749878 8.56768799 -0.02132568 9.71838379 -0.02526855 C12.07870383 -0.02798943 14.43905394 -0.02061607 16.79931641 -0.00390625 C20.41442012 0.01749929 24.0275363 -0.00370366 27.64257812 -0.02929688 C29.93555127 -0.02665363 32.22852317 -0.02152873 34.52148438 -0.01367188 C35.60385376 -0.0217688 36.68622314 -0.02986572 37.8013916 -0.03820801 C38.80923706 -0.02559937 39.81708252 -0.01299072 40.85546875 0 C42.18306213 0.00477356 42.18306213 0.00477356 43.53747559 0.00964355 C46.70816703 0.68342156 47.91470014 2.03114887 49.92773438 4.51757812 C50.56542969 7.08300781 50.56542969 7.08300781 50.75585938 9.93945312 C50.83320312 10.96425781 50.91054687 11.9890625 50.99023438 13.04492188 C51.05210938 14.10839844 51.11398438 15.171875 51.17773438 16.26757812 C51.25507812 17.34652344 51.33242187 18.42546875 51.41210938 19.53710938 C51.60039104 22.19658787 51.77162182 24.85604947 51.92773438 27.51757812 C51.26773438 27.51757812 50.60773438 27.51757812 49.92773438 27.51757812 C49.59773438 28.83757812 49.26773438 30.15757813 48.92773438 31.51757812 C47.60773438 31.51757812 46.28773437 31.51757812 44.92773438 31.51757812 C44.43273437 19.14257812 44.43273437 19.14257812 43.92773438 6.51757812 C37.71644984 6.35190989 31.50525911 6.18946982 25.29370117 6.03540039 C23.18004488 5.98198669 21.06643609 5.92665782 18.95288086 5.86938477 C15.91725915 5.78745646 12.881534 5.71238678 9.84570312 5.63867188 C8.89874069 5.61163681 7.95177826 5.58460175 6.97612 5.55674744 C5.65509026 5.52660301 5.65509026 5.52660301 4.30737305 5.49584961 C3.53237961 5.47586411 2.75738617 5.4558786 1.95890808 5.43528748 C-0.27745967 5.43177322 -0.27745967 5.43177322 -3.07226562 6.51757812 C-3.22612289 13.89752646 -3.37430379 21.2775657 -3.51522923 28.65777302 C-3.58084436 32.08465632 -3.64841775 35.51147771 -3.72045898 38.93823242 C-3.80318572 42.87733591 -3.87740856 46.81657742 -3.95117188 50.75585938 C-3.99172447 52.60284172 -3.99172447 52.60284172 -4.03309631 54.48713684 C-4.0531926 55.62809311 -4.07328888 56.76904938 -4.09399414 57.94458008 C-4.11397964 58.95051712 -4.13396515 59.95645416 -4.15455627 60.99287415 C-4.18823035 63.64494192 -4.18823035 63.64494192 -3.07226562 66.51757812 C-1.58847412 66.55516235 -1.58847412 66.55516235 -0.07470703 66.59350586 C3.58932842 66.687556 7.25317322 66.78778241 10.91699219 66.88989258 C12.50386094 66.93325054 14.09077661 66.97492499 15.67773438 67.01489258 C17.95652416 67.07257444 20.23507759 67.13627451 22.51367188 67.20117188 C23.22518402 67.21788437 23.93669617 67.23459686 24.66976929 67.2518158 C29.69999096 67.40370642 29.69999096 67.40370642 31.92773438 68.51757812 C31.92773438 69.83757812 31.92773438 71.15757812 31.92773438 72.51757812 C26.73166451 72.61653638 21.53614439 72.68908805 16.33935547 72.73730469 C14.57200566 72.75740663 12.80472224 72.78469284 11.03759766 72.81933594 C8.49560153 72.86791821 5.95448541 72.89056038 3.41210938 72.90820312 C2.22908234 72.93917084 2.22908234 72.93917084 1.02215576 72.97076416 C-2.55179624 72.9722224 -4.63106313 72.84599201 -7.54003906 70.68066406 C-10.06207297 67.12024015 -10.20027216 64.24780876 -10.20507812 60.00585938 C-10.20733398 58.87011475 -10.20958984 57.73437012 -10.21191406 56.56420898 C-10.20708008 55.3319458 -10.20224609 54.09968262 -10.19726562 52.83007812 C-10.19243164 51.56107666 -10.18759766 50.2920752 -10.18261719 48.98461914 C-10.1642259 45.55044306 -10.13227154 42.11651527 -10.09509277 38.68249512 C-10.07972381 37.2249088 -10.06583603 35.7673062 -10.05334473 34.30969238 C-10.01542211 29.89979881 -9.95485264 25.49122986 -9.86273193 21.0821228 C-9.83584783 19.6690043 -9.81549727 18.25574576 -9.80181885 16.84243774 C-9.78062848 14.85755797 -9.73170736 12.87303325 -9.68164062 10.88867188 C-9.66069336 9.75357178 -9.63974609 8.61847168 -9.61816406 7.44897461 C-8.5927754 1.94278421 -5.38011451 0.019345 0 0 Z " fill="#3A4C5D" transform="translate(64.072265625,62.482421875)"/>
<path d="M0 0 C0.33 0 0.66 0 1 0 C1.00808685 0.61672577 1.01617371 1.23345154 1.02450562 1.86886597 C1.11100517 8.32618763 1.21052498 14.78321822 1.31738281 21.24023438 C1.35550968 23.64545782 1.39039004 26.05073513 1.421875 28.45605469 C1.46788093 31.92662723 1.52581543 35.39683417 1.5859375 38.8671875 C1.59748871 39.93113739 1.60903992 40.99508728 1.62094116 42.09127808 C1.74771665 48.60116392 2.47886296 54.66663031 4 61 C5.4837915 61.03758423 5.4837915 61.03758423 6.99755859 61.07592773 C10.66159404 61.16997787 14.32543885 61.27020429 17.98925781 61.37231445 C19.57612657 61.41567241 21.16304224 61.45734687 22.75 61.49731445 C25.02878979 61.55499632 27.30734322 61.61869638 29.5859375 61.68359375 C30.65320572 61.70866249 30.65320572 61.70866249 31.74203491 61.73423767 C36.77225659 61.88612829 36.77225659 61.88612829 39 63 C39 64.32 39 65.64 39 67 C33.80393014 67.09895826 28.60841002 67.17150993 23.41162109 67.21972656 C21.64427128 67.2398285 19.87698787 67.26711472 18.10986328 67.30175781 C15.56786715 67.35034009 13.02675104 67.37298226 10.484375 67.390625 C9.30134796 67.42159271 9.30134796 67.42159271 8.09442139 67.45318604 C4.52046938 67.45464428 2.4412025 67.32841389 -0.46777344 65.16308594 C-3.0200214 61.56000803 -3.12806954 58.64105236 -3.1328125 54.34765625 C-3.13474609 53.19096436 -3.13667969 52.03427246 -3.13867188 50.8425293 C-3.1319043 48.97141479 -3.1319043 48.97141479 -3.125 47.0625 C-3.12306641 45.78608643 -3.12113281 44.50967285 -3.11914062 43.19458008 C-3.05996913 29.78483932 -2.58281306 16.39695026 -2 3 C-1.34 3 -0.68 3 0 3 C0 2.01 0 1.02 0 0 Z " fill="#273E56" transform="translate(57,68)"/>
<path d="M0 0 C3.465 2.475 3.465 2.475 7 5 C5.35821011 10.07553339 2.3354803 14.03421817 -0.75 18.3125 C-1.26304688 19.03373047 -1.77609375 19.75496094 -2.3046875 20.49804688 C-5.79573723 25.38814794 -9.37528174 30.20834273 -13 35 C-16.34430737 34.27633685 -18.34262343 33.18284504 -21 31 C-20.38048162 27.59815894 -19.11548687 25.48731582 -17.05078125 22.734375 C-16.44943359 21.92613281 -15.84808594 21.11789063 -15.22851562 20.28515625 C-14.59623047 19.44855469 -13.96394531 18.61195312 -13.3125 17.75 C-12.69955078 16.92886719 -12.08660156 16.10773438 -11.45507812 15.26171875 C-9.64286323 12.83646404 -7.82223717 10.41772978 -6 8 C-4.84725501 6.46384268 -3.69487918 4.92740823 -2.54296875 3.390625 C-1.70378906 2.27171875 -0.86460937 1.1528125 0 0 Z " fill="#F57570" transform="translate(129,80)"/>
<path d="M0 0 C4.54489648 1.39129484 8.36555337 3.97613124 11.0625 7.9375 C11.35118486 14.09009613 7.14388403 18.52074472 3.625 23.1875 C3.02623047 24.0021875 2.42746094 24.816875 1.81054688 25.65625 C-2.5359623 31.5359623 -2.5359623 31.5359623 -4.9375 33.9375 C-5.2675 32.6175 -5.5975 31.2975 -5.9375 29.9375 C-4.9475 29.9375 -3.9575 29.9375 -2.9375 29.9375 C-2.999375 28.3596875 -2.999375 28.3596875 -3.0625 26.75 C-2.94602125 23.19739827 -2.46541932 21.08883359 -0.9375 17.9375 C-2.9175 16.6175 -4.8975 15.2975 -6.9375 13.9375 C-8.5875 16.2475 -10.2375 18.5575 -11.9375 20.9375 C-13.5875 20.6075 -15.2375 20.2775 -16.9375 19.9375 C-6.04683941 1.92984236 -6.04683941 1.92984236 0 0 Z " fill="#253550" transform="translate(135.9375,67.0625)"/>
<path d="M0 0 C0.65830811 -0.00191345 1.31661621 -0.0038269 1.99487305 -0.00579834 C3.3868854 -0.0071595 4.77891047 -0.00346783 6.17089844 0.00488281 C8.30432589 0.015584 10.43691131 0.00498594 12.5703125 -0.0078125 C13.92187686 -0.00649089 15.2734407 -0.00392847 16.625 0 C18.47544922 0.00338379 18.47544922 0.00338379 20.36328125 0.00683594 C23.3125 0.265625 23.3125 0.265625 25.3125 2.265625 C25.3125 3.255625 25.3125 4.245625 25.3125 5.265625 C22.3905231 6.72661345 19.81356525 6.37697401 16.5546875 6.36328125 C15.56011032 6.36115883 15.56011032 6.36115883 14.54544067 6.35899353 C12.42608137 6.35339254 10.30682741 6.34084 8.1875 6.328125 C6.75130361 6.32311012 5.31510556 6.31854719 3.87890625 6.31445312 C0.35673655 6.30342282 -3.16537145 6.28615759 -6.6875 6.265625 C-7.3475 4.945625 -8.0075 3.625625 -8.6875 2.265625 C-5.85490425 -0.56697075 -3.9605534 0.00724239 0 0 Z " fill="#43525F" transform="translate(74.6875,89.734375)"/>
<path d="M0 0 C3.37462715 0.54723683 5.08235 1.0549 8 3 C7.49396008 5.16874252 7.00016187 6.99967627 6 9 C7.32 9 8.64 9 10 9 C10.33 6.36 10.66 3.72 11 1 C11.66 1.33 12.32 1.66 13 2 C12.74285227 8.37726374 9.25519399 12.35273738 5.5625 17.25 C4.96373047 18.0646875 4.36496094 18.879375 3.74804688 19.71875 C-0.5984623 25.5984623 -0.5984623 25.5984623 -3 28 C-3.33 26.68 -3.66 25.36 -4 24 C-3.01 24 -2.02 24 -1 24 C-1.04125 22.948125 -1.0825 21.89625 -1.125 20.8125 C-1.00852125 17.25989827 -0.52791932 15.15133359 1 12 C0.01 11.34 -0.98 10.68 -2 10 C-1.814375 9.401875 -1.62875 8.80375 -1.4375 8.1875 C-0.77906313 5.83591238 -0.77906313 5.83591238 -2 3 C-1.34 2.01 -0.68 1.02 0 0 Z " fill="#1E2F4B" transform="translate(134,73)"/>
<path d="M0 0 C1.34888732 0.00015905 2.69778075 0.00584927 4.04663086 0.01586914 C5.10991859 0.01799156 5.10991859 0.01799156 6.19468689 0.02015686 C8.46699173 0.02577096 10.73919936 0.03832576 13.01147461 0.05102539 C14.54858257 0.05603858 16.08569206 0.0606018 17.62280273 0.06469727 C21.39823103 0.07574497 25.17358632 0.09301898 28.94897461 0.11352539 C29.51147461 2.05102539 29.51147461 2.05102539 29.94897461 4.11352539 C28.94897461 5.11352539 28.94897461 5.11352539 25.98974609 5.22705078 C24.69625244 5.22181396 23.40275879 5.21657715 22.07006836 5.21118164 C21.04007469 5.20905922 21.04007469 5.20905922 19.98927307 5.20689392 C17.7882966 5.20128018 15.58742052 5.18872546 13.38647461 5.17602539 C11.89754378 5.17101216 10.40861137 5.16644894 8.91967773 5.16235352 C5.26274386 5.15130632 1.60586903 5.13403252 -2.05102539 5.11352539 C-2.71102539 3.79352539 -3.37102539 2.47352539 -4.05102539 1.11352539 C-3.05102539 0.11352539 -3.05102539 0.11352539 0 0 Z " fill="#243A51" transform="translate(70.051025390625,78.886474609375)"/>
<path d="M0 0 C0 0.33 0 0.66 0 1 C-0.969375 1.12375 -1.93875 1.2475 -2.9375 1.375 C-4.4534375 1.684375 -4.4534375 1.684375 -6 2 C-6.33 2.66 -6.66 3.32 -7 4 C-4.36 3.67 -1.72 3.34 1 3 C-2 5 -2 5 -5 6 C-5.33 24.48 -5.66 42.96 -6 62 C-6.33 62 -6.66 62 -7 62 C-8.18327281 56.31523739 -8.22158451 50.69541742 -8.31640625 44.9140625 C-8.33718735 43.85714203 -8.35796844 42.80022156 -8.37937927 41.71127319 C-8.44453991 38.34924555 -8.50360361 34.98714263 -8.5625 31.625 C-8.60571708 29.3398361 -8.64933238 27.05467969 -8.69335938 24.76953125 C-8.80018683 19.17976609 -8.90201425 13.58992676 -9 8 C-9.66 8 -10.32 8 -11 8 C-10.64987213 5.40905378 -10.26229035 3.4225789 -8.875 1.1875 C-5.99131838 -0.63883169 -3.32254207 -0.18806842 0 0 Z " fill="#495666" transform="translate(66,63)"/>
<path d="M0 0 C1.00426025 0.00193359 2.00852051 0.00386719 3.04321289 0.00585938 C12.48656299 0.05945134 21.89094782 0.50935598 31.3125 1.125 C31.3125 1.785 31.3125 2.445 31.3125 3.125 C15.1425 3.455 -1.0275 3.785 -17.6875 4.125 C-17.3575 3.135 -17.0275 2.145 -16.6875 1.125 C-11.11178165 -0.05178478 -5.66903914 -0.02633045 0 0 Z " fill="#112E4B" transform="translate(76.6875,62.875)"/>
<path d="M0 0 C0.33 0 0.66 0 1 0 C1 1.65 1 3.3 1 5 C0.01 5.495 0.01 5.495 -1 6 C-1.144375 6.763125 -1.28875 7.52625 -1.4375 8.3125 C-2.07046378 11.33666029 -2.86504075 12.78596818 -5 15 C-5.680625 15.165 -6.36125 15.33 -7.0625 15.5 C-9.21635115 15.81523431 -9.21635115 15.81523431 -10.25 18.0625 C-10.4975 18.701875 -10.745 19.34125 -11 20 C-11.63539635 16.23874572 -10.7238418 14.24424892 -8.62890625 11.23046875 C-7.61892555 9.87367947 -6.59632004 8.52621368 -5.5625 7.1875 C-5.04623047 6.49462891 -4.52996094 5.80175781 -3.99804688 5.08789062 C-2.69982137 3.36540842 -1.35385112 1.67911333 0 0 Z " fill="#23324B" transform="translate(132,92)"/>
<path d="M0 0 C12.21 0 24.42 0 37 0 C37 8.25 37 16.5 37 25 C36.67 25 36.34 25 36 25 C36 17.08 36 9.16 36 1 C24.12 1 12.24 1 0 1 C0 0.67 0 0.34 0 0 Z " fill="#49596A" transform="translate(71,69)"/>
<path d="M0 0 C3.37462715 0.54723683 5.08235 1.0549 8 3 C7.49396008 5.16874252 7.00016187 6.99967627 6 9 C3.0280615 7.87548273 0.66559313 6.77706209 -2 5 C-1.34 3.35 -0.68 1.7 0 0 Z " fill="#EB7876" transform="translate(134,73)"/>
<path d="M0 0 C0.99 0.495 0.99 0.495 2 1 C1.67 18.82 1.34 36.64 1 55 C0.67 55 0.34 55 0 55 C0 36.85 0 18.7 0 0 Z " fill="#566370" transform="translate(61,69)"/>
<path d="M0 0 C1.10844919 3.32534757 0.84454356 5.62182575 0 9 C0.66 9 1.32 9 2 9 C2 8.34 2 7.68 2 7 C2.66 7 3.32 7 4 7 C4.1546875 6.071875 4.1546875 6.071875 4.3125 5.125 C5 3 5 3 8 1 C8.99 1 9.98 1 11 1 C10.67 1.66 10.34 2.32 10 3 C10.99 3.33 11.98 3.66 13 4 C11.07010782 5.19982444 9.13080772 6.38452818 7.1875 7.5625 C5.56908203 8.55443359 5.56908203 8.55443359 3.91796875 9.56640625 C1 11 1 11 -2 10 C-1.54177532 6.53058454 -1.10868317 3.32604951 0 0 Z " fill="#344455" transform="translate(99,120)"/>
<path d="M0 0 C0.33 0 0.66 0 1 0 C1 2.97 1 5.94 1 9 C2.32 9.33 3.64 9.66 5 10 C3.68 10 2.36 10 1 10 C0.67 11.32 0.34 12.64 0 14 C-0.66 14 -1.32 14 -2 14 C-2 14.66 -2 15.32 -2 16 C-2.66 16 -3.32 16 -4 16 C-3.65697965 10.01488629 -3.17692157 5.24882694 0 0 Z " fill="#122F4B" transform="translate(103,113)"/>
<path d="M0 0 C-1.46818668 3.10742423 -3.20025 5.90471739 -5.125 8.75 C-5.93324219 9.94882813 -5.93324219 9.94882813 -6.7578125 11.171875 C-7.16773437 11.77515625 -7.57765625 12.3784375 -8 13 C-8.103125 12.360625 -8.20625 11.72125 -8.3125 11.0625 C-8.539375 10.381875 -8.76625 9.70125 -9 9 C-9.99 8.67 -10.98 8.34 -12 8 C-4 0 -4 0 0 0 Z " fill="#303B53" transform="translate(126,107)"/>
<path d="M0 0 C0.94875 0.350625 1.8975 0.70125 2.875 1.0625 C2.545 4.0325 2.215 7.0025 1.875 10.0625 C0.555 10.0625 -0.765 10.0625 -2.125 10.0625 C-1.8775 9.155 -1.63 8.2475 -1.375 7.3125 C-0.74240673 3.97412152 -0.74240673 3.97412152 -3.0625 1.6875 C-3.743125 1.15125 -4.42375 0.615 -5.125 0.0625 C-3.125 -0.9375 -3.125 -0.9375 0 0 Z " fill="#24324D" transform="translate(142.125,71.9375)"/>
<path d="M0 0 C3.75068199 0.45008184 4.78988517 1.50101252 7.125 4.375 C6.2175 4.519375 5.31 4.66375 4.375 4.8125 C1.91023044 5.23909473 -0.46347107 5.72574221 -2.875 6.375 C-3.205 5.715 -3.535 5.055 -3.875 4.375 C-4.205 5.035 -4.535 5.695 -4.875 6.375 C-5.535 6.375 -6.195 6.375 -6.875 6.375 C-4.15277778 0.54166667 -4.15277778 0.54166667 0 0 Z " fill="#303F55" transform="translate(135.875,67.625)"/>
<path d="M0 0 C1.67542976 0.28604898 3.34385343 0.61781233 5 1 C4.6875 3.375 4.6875 3.375 4 6 C1 8 1 8 -3 8 C-1.125 1.125 -1.125 1.125 0 0 Z " fill="#16304C" transform="translate(112,115)"/>
<path d="M0 0 C0 0.33 0 0.66 0 1 C-0.969375 1.12375 -1.93875 1.2475 -2.9375 1.375 C-4.4534375 1.684375 -4.4534375 1.684375 -6 2 C-6.33 2.66 -6.66 3.32 -7 4 C-4.36 3.67 -1.72 3.34 1 3 C-2 5 -2 5 -5 6 C-5.66 6.66 -6.32 7.32 -7 8 C-8.32 8 -9.64 8 -11 8 C-10.64987213 5.40905378 -10.26229035 3.4225789 -8.875 1.1875 C-5.99131838 -0.63883169 -3.32254207 -0.18806842 0 0 Z " fill="#2F4156" transform="translate(66,63)"/>
<path d="M0 0 C0.66 0.33 1.32 0.66 2 1 C1.59992325 6.46771564 -0.46144592 9.95935379 -4 14 C-4.33 14 -4.66 14 -5 14 C-5 12.35 -5 10.7 -5 9 C-5.66 8.67 -6.32 8.34 -7 8 C-5.02 8 -3.04 8 -1 8 C-0.67 5.36 -0.34 2.72 0 0 Z " fill="#3E4F64" transform="translate(145,74)"/>
<path d="M0 0 C10.89 0 21.78 0 33 0 C33 0.33 33 0.66 33 1 C22.11 1 11.22 1 0 1 C0 0.67 0 0.34 0 0 Z " fill="#5F6E7E" transform="translate(61,128)"/>
<path d="M0 0 C10.23 0 20.46 0 31 0 C31 0.33 31 0.66 31 1 C20.77 1 10.54 1 0 1 C0 0.67 0 0.34 0 0 Z " fill="#253447" transform="translate(68,85)"/>
<path d="M0 0 C0.99 0 1.98 0 3 0 C2.64950425 3.24208567 2.43778819 4.61527704 -0.0625 6.8125 C-0.701875 7.204375 -1.34125 7.59625 -2 8 C-2.6875 6.25 -2.6875 6.25 -3 4 C-1.75 1.75 -1.75 1.75 0 0 Z " fill="#1D2F49" transform="translate(114,94)"/>
<path d="M0 0 C9.57 0 19.14 0 29 0 C29 0.33 29 0.66 29 1 C19.43 1 9.86 1 0 1 C0 0.67 0 0.34 0 0 Z " fill="#657480" transform="translate(68,88)"/>
<path d="M0 0 C0.33 0 0.66 0 1 0 C1 9.24 1 18.48 1 28 C0.67 28 0.34 28 0 28 C0 18.76 0 9.52 0 0 Z " fill="#757F8A" transform="translate(52,100)"/>
<path d="M0 0 C-0.61454696 3.99455527 -2.70646737 6.74466336 -5 10 C-5.66 8.68 -6.32 7.36 -7 6 C-6.01 6 -5.02 6 -4 6 C-4 4.35 -4 2.7 -4 1 C-2 0 -2 0 0 0 Z " fill="#354B60" transform="translate(137,91)"/>
<path d="M0 0 C7.92 0 15.84 0 24 0 C24 0.33 24 0.66 24 1 C16.08 1 8.16 1 0 1 C0 0.67 0 0.34 0 0 Z " fill="#232F46" transform="translate(74,77)"/>
<path d="M0 0 C0.99 1.32 1.98 2.64 3 4 C1.68 5.32 0.36 6.64 -1 8 C-1.33 7.34 -1.66 6.68 -2 6 C-2.66 5.67 -3.32 5.34 -4 5 C-2.68 3.35 -1.36 1.7 0 0 Z " fill="#363B53" transform="translate(110,99)"/>
<path d="M0 0 C0.99 0 1.98 0 3 0 C1.47291037 3.43595166 -0.59927045 6.11912454 -3 9 C-3.33 7.68 -3.66 6.36 -4 5 C-3.34 4.67 -2.68 4.34 -2 4 C-0.86649466 1.98330173 -0.86649466 1.98330173 0 0 Z " fill="#3E5166" transform="translate(123,107)"/>
<path d="M0 0 C0.99 0 1.98 0 3 0 C2.67 2.64 2.34 5.28 2 8 C0.68 8 -0.64 8 -2 8 C-1.67 7.4225 -1.34 6.845 -1 6.25 C0.27075898 3.80116138 0.27075898 3.80116138 0 0 Z " fill="#152C4A" transform="translate(142,74)"/>
<path d="M0 0 C3.1875 0.3125 3.1875 0.3125 5.5625 2.3125 C6.09875 2.9725 6.635 3.6325 7.1875 4.3125 C5.2075 4.3125 3.2275 4.3125 1.1875 4.3125 C0.8575 3.6525 0.5275 2.9925 0.1875 2.3125 C-0.8025 2.8075 -0.8025 2.8075 -1.8125 3.3125 C-2.4725 2.6525 -3.1325 1.9925 -3.8125 1.3125 C-2.8125 0.3125 -2.8125 0.3125 0 0 Z " fill="#435568" transform="translate(135.8125,67.6875)"/>
<path d="M0 0 C1.32 1.32 2.64 2.64 4 4 C3.2575 4.0825 2.515 4.165 1.75 4.25 C-1.51221354 5.1396946 -2.80954878 6.48503749 -5 9 C-3.7508258 5.54074837 -2.32472205 2.85306797 0 0 Z " fill="#E97B7A" transform="translate(129,80)"/>
<path d="M0 0 C6.6 0 13.2 0 20 0 C20 0.33 20 0.66 20 1 C13.4 1 6.8 1 0 1 C0 0.67 0 0.34 0 0 Z " fill="#16325F" transform="translate(59,136)"/>
<path d="M0 0 C0.33 1.32 0.66 2.64 1 4 C-1.475 5.485 -1.475 5.485 -4 7 C-3.39816251 4.97954558 -2.72693904 2.97888961 -2 1 C-1.34 0.67 -0.68 0.34 0 0 Z " fill="#152E4A" transform="translate(108,104)"/>
<path d="M0 0 C0.33 0.66 0.66 1.32 1 2 C1.66 2 2.32 2 3 2 C2.67 3.32 2.34 4.64 2 6 C0.35 5.67 -1.3 5.34 -3 5 C-2.01 3.35 -1.02 1.7 0 0 Z " fill="#313E55" transform="translate(122,82)"/>
<path d="M0 0 C1.32 0.66 2.64 1.32 4 2 C3.67 2.99 3.34 3.98 3 5 C1.35 5 -0.3 5 -2 5 C-1.34 3.35 -0.68 1.7 0 0 Z " fill="#2D3952" transform="translate(135,87)"/>
<path d="M0 0 C2.31 0 4.62 0 7 0 C6.67 0.66 6.34 1.32 6 2 C3.67843403 2.40729228 1.3431213 2.74438677 -1 3 C-0.67 2.01 -0.34 1.02 0 0 Z " fill="#14314D" transform="translate(68,92)"/>
<path d="M0 0 C0.33 0 0.66 0 1 0 C1 3.96 1 7.92 1 12 C0.67 12 0.34 12 0 12 C0 8.04 0 4.08 0 0 Z " fill="#0D375E" transform="translate(53,67)"/>
<path d="M0 0 C3.63 0 7.26 0 11 0 C11 0.33 11 0.66 11 1 C7.37 1 3.74 1 0 1 C0 0.67 0 0.34 0 0 Z " fill="#0F285A" transform="translate(81,136)"/>
<path d="M0 0 C0.33 0 0.66 0 1 0 C1 2.31 1 4.62 1 7 C0.67 7 0.34 7 0 7 C0 4.69 0 2.38 0 0 Z " fill="#0E4977" transform="translate(53,81)"/>
<path d="M0 0 C1.485 0.99 1.485 0.99 3 2 C2.34 2 1.68 2 1 2 C0.67 2.66 0.34 3.32 0 4 C0 2.68 0 1.36 0 0 Z " fill="#273844" transform="translate(97,131)"/>
<path d="M0 0 C1.98 0 3.96 0 6 0 C6 0.33 6 0.66 6 1 C4.02 1 2.04 1 0 1 C0 0.67 0 0.34 0 0 Z " fill="#323C45" transform="translate(133,66)"/>
<path d="M0 0 C0.66 0.66 1.32 1.32 2 2 C1.34 2.66 0.68 3.32 0 4 C0 2.68 0 1.36 0 0 Z " fill="#1A2737" transform="translate(106,115)"/>
<path d="M0 0 C0.33 0.99 0.66 1.98 1 3 C0.34 2.67 -0.32 2.34 -1 2 C-0.67 1.34 -0.34 0.68 0 0 Z " fill="#353F49" transform="translate(95,127)"/>
<path d="M0 0 C1 4 1 4 1 4 Z " fill="#5B6874" transform="translate(148,75)"/>
<path d="M0 0 C1 4 1 4 1 4 Z " fill="#323B49" transform="translate(115,67)"/>
<path d="M0 0 C3 1 3 1 3 1 Z " fill="#223F59" transform="translate(93,136)"/>
<path d="" fill="#24364B" transform="translate(0,0)"/>
<path d="" fill="#2A3A4E" transform="translate(0,0)"/>
<path d="" fill="#182431" transform="translate(0,0)"/>
<path d="M0 0 C3 1 3 1 3 1 Z " fill="#38414A" transform="translate(59,61)"/>
<path d="M0 0 C2 1 2 1 2 1 Z " fill="#1C232B" transform="translate(100,131)"/>
<path d="" fill="#304756" transform="translate(0,0)"/>
<path d="M0 0 C2 1 2 1 2 1 Z " fill="#27394C" transform="translate(105,128)"/>
<path d="M0 0 C2 1 2 1 2 1 Z " fill="#1A243C" transform="translate(108,126)"/>
<path d="" fill="#1E2F44" transform="translate(0,0)"/>
<path d="M0 0 C2 1 2 1 2 1 Z " fill="#1C2F42" transform="translate(113,123)"/>
<path d="M0 0 C2 1 2 1 2 1 Z " fill="#0C1B29" transform="translate(105,120)"/>
<path d="" fill="#2C3236" transform="translate(0,0)"/>
<path d="" fill="#3E4757" transform="translate(0,0)"/>
<path d="" fill="#2C323A" transform="translate(0,0)"/>
<path d="" fill="#27384A" transform="translate(0,0)"/>
<path d="" fill="#334255" transform="translate(0,0)"/>
<path d="" fill="#3E444F" transform="translate(0,0)"/>
<path d="" fill="#252839" transform="translate(0,0)"/>
<path d="" fill="#363A4A" transform="translate(0,0)"/>
<path d="" fill="#20273B" transform="translate(0,0)"/>
<path d="" fill="#31373D" transform="translate(0,0)"/>
<path d="" fill="#252D3D" transform="translate(0,0)"/>
<path d="M0 0 C2 1 2 1 2 1 Z " fill="#465464" transform="translate(96,97)"/>
<path d="" fill="#363B41" transform="translate(0,0)"/>
<path d="" fill="#475562" transform="translate(0,0)"/>
<path d="" fill="#6D7983" transform="translate(0,0)"/>
<path d="" fill="#2D3339" transform="translate(0,0)"/>
<path d="" fill="#263447" transform="translate(0,0)"/>
<path d="" fill="#333A3F" transform="translate(0,0)"/>
<path d="" fill="#272F39" transform="translate(0,0)"/>
<path d="" fill="#3D4448" transform="translate(0,0)"/>
<path d="" fill="#46515A" transform="translate(0,0)"/>
<path d="" fill="#2E3447" transform="translate(0,0)"/>
<path d="M0 0 C2 1 2 1 2 1 Z " fill="#394253" transform="translate(67,77)"/>
<path d="M0 0 C2 1 2 1 2 1 Z " fill="#4D5355" transform="translate(144,71)"/>
<path d="M0 0 C2 1 2 1 2 1 Z " fill="#41464B" transform="translate(140,68)"/>
<path d="M0 0 C2 1 2 1 2 1 Z " fill="#495B6B" transform="translate(108,61)"/>
<path d="" fill="#334353" transform="translate(0,0)"/>
<path d="" fill="#00031C" transform="translate(0,0)"/>
<path d="" fill="#000000" transform="translate(0,0)"/>
<path d="" fill="#000015" transform="translate(0,0)"/>
<path d="" fill="#172D3D" transform="translate(0,0)"/>
<path d="" fill="#1A2D3F" transform="translate(0,0)"/>
<path d="" fill="#011118" transform="translate(0,0)"/>
<path d="" fill="#273649" transform="translate(0,0)"/>
<path d="" fill="#203045" transform="translate(0,0)"/>
<path d="" fill="#172D41" transform="translate(0,0)"/>
<path d="" fill="#243447" transform="translate(0,0)"/>
<path d="" fill="#162A3E" transform="translate(0,0)"/>
<path d="" fill="#495560" transform="translate(0,0)"/>
<path d="" fill="#4D5A64" transform="translate(0,0)"/>
<path d="" fill="#293B46" transform="translate(0,0)"/>
<path d="" fill="#122B3D" transform="translate(0,0)"/>
<path d="" fill="#192C3F" transform="translate(0,0)"/>
<path d="" fill="#0A2034" transform="translate(0,0)"/>
<path d="" fill="#415160" transform="translate(0,0)"/>
<path d="" fill="#324555" transform="translate(0,0)"/>
<path d="" fill="#192C42" transform="translate(0,0)"/>
<path d="" fill="#495767" transform="translate(0,0)"/>
<path d="" fill="#333F4F" transform="translate(0,0)"/>
<path d="" fill="#2A394E" transform="translate(0,0)"/>
<path d="" fill="#192A40" transform="translate(0,0)"/>
<path d="" fill="#4B5868" transform="translate(0,0)"/>
<path d="" fill="#353E52" transform="translate(0,0)"/>
<path d="" fill="#1B2D41" transform="translate(0,0)"/>
<path d="" fill="#142339" transform="translate(0,0)"/>
<path d="" fill="#455464" transform="translate(0,0)"/>
<path d="" fill="#28384B" transform="translate(0,0)"/>
<path d="" fill="#2D3E52" transform="translate(0,0)"/>
<path d="" fill="#545D6E" transform="translate(0,0)"/>
<path d="" fill="#314553" transform="translate(0,0)"/>
<path d="" fill="#555C64" transform="translate(0,0)"/>
<path d="" fill="#172536" transform="translate(0,0)"/>
<path d="" fill="#02152C" transform="translate(0,0)"/>
<path d="" fill="#001A2F" transform="translate(0,0)"/>
<path d="" fill="#535A62" transform="translate(0,0)"/>
<path d="" fill="#3D4C5B" transform="translate(0,0)"/>
<path d="" fill="#14273D" transform="translate(0,0)"/>
<path d="" fill="#324151" transform="translate(0,0)"/>
<path d="" fill="#000000" transform="translate(0,0)"/>
<path d="" fill="#232C42" transform="translate(0,0)"/>
<path d="" fill="#17263C" transform="translate(0,0)"/>
<path d="" fill="#435063" transform="translate(0,0)"/>
<path d="" fill="#42505E" transform="translate(0,0)"/>
<path d="" fill="#192B3E" transform="translate(0,0)"/>
<path d="" fill="#0C2031" transform="translate(0,0)"/>
<path d="" fill="#354049" transform="translate(0,0)"/>
<path d="" fill="#00001F" transform="translate(0,0)"/>
<path d="" fill="#42525E" transform="translate(0,0)"/>
<path d="" fill="#313D47" transform="translate(0,0)"/>
<path d="" fill="#2D4152" transform="translate(0,0)"/>
<path d="" fill="#000000" transform="translate(0,0)"/>
<path d="" fill="#4E5764" transform="translate(0,0)"/>
<path d="" fill="#5A6979" transform="translate(0,0)"/>
<path d="" fill="#394B58" transform="translate(0,0)"/>
<path d="" fill="#66747D" transform="translate(0,0)"/>
<path d="" fill="#4F5D67" transform="translate(0,0)"/>
<path d="" fill="#06192F" transform="translate(0,0)"/>
<path d="" fill="#68767D" transform="translate(0,0)"/>
<path d="" fill="#4B5962" transform="translate(0,0)"/>
<path d="" fill="#58656E" transform="translate(0,0)"/>
<path d="" fill="#3B4C58" transform="translate(0,0)"/>
<path d="" fill="#001828" transform="translate(0,0)"/>
<path d="" fill="#0C2032" transform="translate(0,0)"/>
<path d="" fill="#9EAAB0" transform="translate(0,0)"/>
<path d="" fill="#64757E" transform="translate(0,0)"/>
<path d="" fill="#465464" transform="translate(0,0)"/>
<path d="" fill="#202F46" transform="translate(0,0)"/>
<path d="" fill="#233448" transform="translate(0,0)"/>
<path d="" fill="#4E5D6A" transform="translate(0,0)"/>
<path d="" fill="#000002" transform="translate(0,0)"/>
<path d="" fill="#000000" transform="translate(0,0)"/>
<path d="" fill="#455362" transform="translate(0,0)"/>
<path d="" fill="#011129" transform="translate(0,0)"/>
<path d="" fill="#384558" transform="translate(0,0)"/>
<path d="" fill="#3A4855" transform="translate(0,0)"/>
<path d="" fill="#000000" transform="translate(0,0)"/>
<path d="" fill="#000011" transform="translate(0,0)"/>
<path d="" fill="#000006" transform="translate(0,0)"/>
<path d="" fill="#3B4F5C" transform="translate(0,0)"/>
<path d="" fill="#0D1F30" transform="translate(0,0)"/>
</svg>
